<svg version="1" xmlns="http://www.w3.org/2000/svg" width="1010.667" height="1010.667" viewBox="0 0 758.000000 758.000000"><path d="M386.7 207.1c-16.4 4-25.6 19.1-21.9 35.9 1.4 6.4 1.6 6.7 13.6 18.5 13.8 13.7 40.4 39.1 80.6 77.1 5.2 4.9 13.5 12.8 18.5 17.6 4.9 4.7 10.8 10.2 13 12.2 8.4 7.8 18.7 10.2 29.1 7.1 5.7-1.8 7-2.9 40.7-36.4l34.7-34.5V407c0 101 .3 110 3.2 110 .6 0 .8.3.5.6-.9 1 1.2 4.6 2.3 3.9.6-.3.7 0 .4.8-.6 1.7 4 5.8 10 8.9 3.1 1.7 5.9 2.2 11.1 2.2 3.9 0 7.9-.3 9-.6 1.1-.4 2.6-.7 3.3-.7.7-.1 2.5-1.3 3.9-2.8 1.5-1.6 2.3-2.1 1.8-1.3-.4.8 1.1-.3 3.4-2.5s3.7-4.1 3.1-4.3c-.5-.2-1-.8-1-1.3 0-.4.8-.5 1.7-.2 1.3.5 1.5.2 1-1.1-.4-.9-.3-1.5.2-1.1 1 .5 2.2-2.3 2.7-6 .1-1.1.3-2 .4-2 .1 0 .3-.8.5-1.8.2-.9-.1-1.7-.6-1.7-.6 0-.7-.6-.2-1.3 1.2-1.9 1.1-13.7-.1-13-.6.4-.5 0 .2-.9.9-1.1 1-1.8.2-2.3-.6-.3-.7-1.1-.3-1.8 1.1-1.7 1.2-7.6.1-8.3-.5-.3-.5-1.1.2-1.9.8-1 .8-1.5 0-2-.7-.4-.7-1.1-.2-1.8 1.3-1.8 1.3-10.9 0-10.1-.7.5-.8.2-.2-.7 1.3-2.2 1.4-7.3.1-8.1-.7-.5-.8-.8-.1-.8.7 0 1-33.6 1-112.3-.1-111.9-.1-112.2-2.2-116.8-3.1-6.6-7.8-11.4-14.2-14.6-4.7-2.3-7-2.8-12.7-2.7-12.3.1-11.6-.4-64.7 52.6-26.4 26.4-48.3 47.8-48.8 47.6-.5-.2-4.6-3.9-9.2-8.3S484.6 283.1 475 274c-19.1-18-30.4-28.8-45-42.7-5.2-4.9-12-11.4-15-14.2-9-8.5-19.4-12.2-28.3-10zM608.4 489c-.6.6-1 .3-1-1s.4-1.6 1-1c.7.7.7 1.3 0 2zm8.6-1c0 .5-.5 1-1.1 1-.5 0-.7-.5-.4-1 .3-.6.8-1 1.1-1 .2 0 .4.4.4 1zm7.4-.2c.3.5-.1.9-.9.9s-1.2-.4-.9-.9c.3-.4.7-.8.9-.8.2 0 .6.4.9.8zm20.6.2c0 .5-.2 1-.4 1-.3 0-.8-.5-1.1-1-.3-.6-.1-1 .4-1 .6 0 1.1.4 1.1 1zm3.1 1.3c-1 .9-1.1.8-.5-.6.3-1 .9-1.5 1.2-1.2.3.3 0 1.1-.7 1.8zm-13.6.7c.3.5.1 1-.4 1-.6 0-1.1-.5-1.1-1 0-.6.2-1 .4-1 .3 0 .8.4 1.1 1zm-16 3.9c-.9.8-3.6 1-3 .2.2-.4 1.1-.8 2-.8.8 0 1.3.3 1 .6zm-15.5 2.3c0 .4-.4.8-.9.8-.6 0-1.2-.4-1.5-.8-.3-.5.1-.9.9-.9s1.5.4 1.5.9zm41.4-.4c.3.5-.1.9-.9.9s-1.2-.4-.9-.9c.3-.4.7-.8.9-.8.2 0 .6.4.9.8zm.4 4.7c-.3.3-.9-.2-1.2-1.2-.6-1.4-.5-1.5.5-.6.7.7 1 1.5.7 1.8zm-28.3-.6c.3.5.2 1.2-.3 1.5-.5.3-.9-.1-.9-.9 0-1.7.3-1.9 1.2-.6zm14.2 1.8c-.4.3-.1 1.3.6 2.2 1.1 1.4 1 1.4-.5.2-1.6-1.2-1.6-3.1-.1-3.1.4 0 .3.3 0 .7zm18.3-.3c0 .2-.7.7-1.6 1-.8.3-1.2.2-.9-.4.6-1 2.5-1.4 2.5-.6zm-24.5 2.5c-.9.8-3.6 1-3 .2.2-.4 1.1-.8 2-.8.8 0 1.3.3 1 .6zm12.5.1c0 .5-.2 1-.4 1-.3 0-.8-.5-1.1-1-.3-.6-.1-1 .4-1 .6 0 1.1.4 1.1 1zm11.7-.3c-.4.3-.1 1.3.6 2.2 1.1 1.4 1 1.4-.5.2-1.6-1.2-1.6-3.1-.1-3.1.4 0 .3.3 0 .7zm-7.7.7c0 .2-.8 1-1.7 1.7-1.6 1.3-1.7 1.2-.4-.4 1.3-1.6 2.1-2.1 2.1-1.3zm-12 1.4c0 .5-.7.9-1.5.9s-1.2-.4-.9-.9c.3-.4.9-.8 1.5-.8.5 0 .9.4.9.8zm-20 .6c0 .2-.8 1-1.7 1.7-1.6 1.3-1.7 1.2-.4-.4 1.3-1.6 2.1-2.1 2.1-1.3zm7.7.9c0 .8-.6 1.4-1.4 1.4-.9 0-1-.4-.2-1.4.6-.7 1.2-1.3 1.4-1.3.1 0 .2.6.2 1.3zm8.3-.9c0 .2-.6.9-1.4 1.5-1.1.9-1.6.9-2.2 0-.4-.7-.3-.9.4-.5.6.3 1.3.2 1.7-.4.6-1 1.5-1.4 1.5-.6zm7.6 3.1c.1.8-.1 1.7-.5 1.9-.4.3-.7-.6-.7-1.9 0-2.5.8-2.5 1.2 0zm4.4-1.1c0 .2-.8 1-1.7 1.7-1.6 1.3-1.7 1.2-.4-.4 1.3-1.6 2.1-2.1 2.1-1.3zm-8 3.1c1.3 1.4 2.1 2.5 1.8 2.5-.2 0-1.5-1.1-2.8-2.5-1.3-1.4-2.1-2.5-1.8-2.5.2 0 1.5 1.1 2.8 2.5zm-6.4 1.1c.1.9 0 1.3-.4 1-.3-.4-.7-1.4-.8-2.2-.1-.9 0-1.3.4-1 .3.4.7 1.4.8 2.2zm15.4-1.1c-.7.8-1.7 1.5-2.3 1.5-.6 0-.2-.7.9-1.5 2.5-1.9 3-1.9 1.4 0zm7.9.9c.8 1 .9 1.6.1 2.1-.6.4-1 .3-.9-.2.4-2.2-.2-2.5-1.6-.7-1.4 1.8-1.4 1.8-.8-.4.6-2.5 1.6-2.8 3.2-.8zm3.8.8c-.3.8-.6.5-.6-.6-.1-1.1.2-1.7.5-1.3.3.3.4 1.2.1 1.9zm-32.6.5c1.3 1.6 1.2 1.7-.3.4-1.7-1.3-2.2-2.1-1.4-2.1.2 0 1 .8 1.7 1.7zm-4.7.2c.3.4-.4 1.7-1.7 2.7-2.2 1.9-2.2 1.9-.4-.2.9-1.1 1.4-2.4 1-2.7-.3-.4-.4-.7 0-.7.3 0 .8.4 1.1.9zm15.7.8c1.3 1.6 1.2 1.7-.3.4-1.7-1.3-2.2-2.1-1.4-2.1.2 0 1 .8 1.7 1.7zm-23.8.6c.4-.3.7-.1.7.5s-.8 1-1.8.9c-1 0-1.9-.7-1.9-1.4 0-.9.4-1 1.2-.3.7.5 1.5.7 1.8.3zm17.9.2c.2-.3.5.2.5 1 0 1.9 0 1.9-2.3-.7-1.2-1.4-1.3-1.8-.3-1 .9.6 1.8 1 2.1.7zm12.3.5c.4.6.3 1-.2.9-1.9-.3-2.7.2-1.5 1 1.1.7 1.1.9-.1 1.4-1.6.6-1.7-.9-.4-3.1 1-1.5 1.4-1.5 2.2-.2zm12.8.5c-.3.9-.8 1.4-1 1.1-.3-.3-.2-.9.2-1.5.9-1.6 1.5-1.3.8.4zm-2.5 2c-.3.3-.9-.2-1.2-1.2-.6-1.4-.5-1.5.5-.6.7.7 1 1.5.7 1.8zm-3.8.5c-.6 1.1-1.3 2-1.6 2-.3 0-.2-.5.1-1 .3-.6 0-1-.7-1.1-1 0 1.2-1.4 3-1.8.1-.1-.2.8-.8 1.9zm-35.2.7c-.9 1-1.4 2.9-1.2 4.2.3 1.4.2 2.2-.2 1.9-1.2-1.3-1.1-4.4.4-6.1.8-.9 1.7-1.7 2-1.7.3 0-.2.8-1 1.7zm12.5-.2c-.3.9-.8 1.4-1 1.1-.3-.3-.2-.9.2-1.5.9-1.6 1.5-1.3.8.4zm-2.9.4c-.8.9-4.4 1.1-4.4.3 0-.4 1.1-.8 2.5-.8 1.3 0 2.2.2 1.9.5zm13.3 1.3c-.3.8-.6.5-.6-.6-.1-1.1.2-1.7.5-1.3.3.3.4 1.2.1 1.9zm7.3-1.2c-.8.5-1.9 1-2.5 1-.5 0-.3-.5.5-1s2-1 2.5-1c.6 0 .3.5-.5 1zm-16.9 2.3c-1 .9-1.1.8-.5-.6.3-1 .9-1.5 1.2-1.2.3.3 0 1.1-.7 1.8zm-9.6-.4c-.9.8-3.6 1-3 .2.2-.4 1.1-.8 2-.8.8 0 1.3.3 1 .6zm15.5.1c0 .5-.4 1-1 1-.5 0-1-.5-1-1 0-.6.5-1 1-1 .6 0 1 .4 1 1zm13.6.2c.4.7.3.8-.4.4-1.4-.8-1.5-.4-.6 1.8.3.9 1 1.3 1.5 1 .5-.3.9-.3.9 0 0 1.6-2.1 1.3-3-.4-1.5-2.8 0-5.4 1.6-2.8zm6.4-.2c0 .5-.4 1-1 1-.5 0-1-.5-1-1 0-.6.5-1 1-1 .6 0 1 .4 1 1zm-12.4.9c-.4.5 0 1.2.6 1.4.8.3.6.6-.4.6-1.8.1-2.4-1-1.1-2.2.9-1 1.5-.8.9.2zm-22.1 1.1c-.3.5-1.4 1-2.3.9-1.4 0-1.3-.2.3-.9 2.7-1.1 2.7-1.1 2 0zm6.1.5c-.1.8-.6 1.8-1.1 2.2-.4.5-.5.2 0-.6.6-1.1.4-1.3-1.1-.8-1.8.7-1.8.7 0-.8 2.4-1.8 2.5-1.8 2.2 0zm3.9.5c-.3.5-1.2 1-1.8 1-.7 0-.6-.4.3-1 1.9-1.2 2.3-1.2 1.5 0zm1.6 1.3c-1 .9-1.1.8-.5-.6.3-1 .9-1.5 1.2-1.2.3.3 0 1.1-.7 1.8zm5.1-1.6c-.6.2-.9 1-.6 1.5.4.7.2.8-.5.4-1.3-.9-.5-2.6 1.2-2.5.9 0 .8.2-.1.6zm3.4 1.5c.4.7.3.8-.4.4s-1.2-.2-1.2.5-.3 1-.6.6c-.6-.5.3-2.7 1.1-2.7.2 0 .7.5 1.1 1.2zm6 3.4c-.3.9-1 1.3-1.5.9-.5-.3-1.3-.1-1.6.5-.8 1.3-3.5-.6-3.5-2.3 0-.6.6-.3 1.3.8 1 1.3 1.6 1.5 2.1.6.4-.6 1.2-.8 1.8-.5.7.5.9-.2.4-2.2-.5-2.4-.4-2.6.5-1.1.6 1 .8 2.5.5 3.3zM619 528c0 .5-.2 1-.4 1-.3 0-.8-.5-1.1-1-.3-.6-.1-1 .4-1 .6 0 1.1.4 1.1 1zm5.4.5c-.4.8-.8 1.5-1 1.5-.2 0-.4-.7-.4-1.5s.4-1.5 1-1.5c.5 0 .7.7.4 1.5zm9.6-1.1c0 .3-.4.8-1 1.1-.5.3-1 .1-1-.4 0-.6.5-1.1 1-1.1.6 0 1 .2 1 .4zm-19.7 2.7c-.8.8-1.3.7-1.8-.2-.5-.8-.4-1 .3-.5.7.4 1.2.2 1.2-.5s.3-.9.7-.6c.4.4.2 1.2-.4 1.8zm12.1-.9c-.5.8-.2.9 1 .5 1-.4 1.5-.3 1.1.3-.3.6-.1 1 .6 1s1 .3.7.6c-1 .9-4.9-1.6-4.3-2.7.4-.5.8-.9 1.1-.9.3 0 .2.5-.2 1.2zm-10.3 2.1c-1 .9-1.1.8-.5-.6.3-1 .9-1.5 1.2-1.2.3.3 0 1.1-.7 1.8zm3.9.1c0 .3-.4.8-1 1.1-.5.3-1 .1-1-.4 0-.6.5-1.1 1-1.1.6 0 1 .2 1 .4zm3 .6c0 .5-.4 1-1 1-.5 0-1-.5-1-1 0-.6.5-1 1-1 .6 0 1 .4 1 1zM91.7 208.4c-15.4 5.5-23.3 21.6-18.1 36.9 2.2 6.5 9.1 13.9 15.6 16.7 5.2 2.3 5.9 2.4 42.1 2.4H168l.1 69.6c0 103.5 0 103 1.3 103 .8 0 .8.2 0 .8-1.4.9-1.5 13.2-.1 13.2.5 0 .3.8-.4 1.7-1 1.2-1.1 1.5-.1.9.7-.4 1.9-.2 2.7.4.8.7 1.5.9 1.6.4 0-.5.5 0 1 1.1l.9 2-.3-2c-.1-1.1-.8-2-1.4-2-1.3 0-4.2-3.4-4.3-4.9 0-.5.6-.4 1.3.2 1.8 1.5 3.9-.1 3.1-2.2-.6-1.6-.5-1.7 1.4-.5 1.4.9 1.7 1.6 1 2-.7.4.6.7 2.8.5 2.3-.1 4.5.4 5.3 1.2 1.3 1.2 1.7 1.1 3.4-1.2 1-1.4 2.3-2.6 2.9-2.6.6 0 .5.6-.2 1.5-2.1 2.5.2 3.6 2.9 1.4 1.3-1 2-1.9 1.5-1.9-.4 0-1.6.7-2.6 1.7-1 .9-1.8 1.2-1.8.6 0-1.7 3.7-4.4 5.3-3.8.8.4 1.8.1 2.2-.5.6-.9.9-.9 1.5.1.7 1 1.2 1 2.3 0 .8-.6 1.7-.8 1.9-.4.3.4.3.3.2-.4-.2-.7.1-1.5.6-1.8.6-.4 1.1-.1 1.1.4.1.6.2 1.7.3 2.3 0 .7 1.2 1.3 2.5 1.3 1.8 0 2.5-.6 2.8-2.5.2-1.8.1-2.1-.6-1-.5.8-.7 1.8-.5 2.2.3.4.1.8-.5.8-1.3 0-4-3.9-3.7-5.4.2-.6.1-.8-.1-.4-.8 1.4-1.9.8-2-1.1-.1-1.2.4-1.8 1.3-1.7 2 .3 3.4 2.5 2.7 4.3-.3.7 0 1.3.7 1.3.6 0 .8-.5.5-1-.3-.6-.1-1 .4-1 .6 0 1.1-.5 1.1-1.1 0-.5-.4-.7-1-.4-.5.3-1 .2-1-.4 0-.5.5-1.3 1-1.6.6-.3 1-.2 1 .4 0 .6.7.8 1.5.5.8-.4 1.7.1 2.1 1 .3.9 1 1.6 1.5 1.6.4 0 .6-.6.3-1.3-.3-.8.4-1.3 1.6-1.4 1.1-.1 1.8.2 1.5.7-.3.5 0 1.2.6 1.6.7.4.9.3.5-.4-.8-1.3 1.2-2.7 3.9-2.7 1.8 0 2-.7 2-7.3.1-5.2-.3-7.2-1.2-7.2-.7 0-1.3.4-1.3 1 0 .5.6 1 1.3 1 .8 0 .7.4-.3 1-1.3.9-1.3 1 0 1 1.2 0 1.3.2.1.9-.9.6-1 1-.2 1.4.7.3.7.4-.1.2-.7-.1-1.2-.8-1-1.5.2-.8-.3-1-1.3-.6-.9.3-1.4.2-1.1-.3.3-.5-.1-1.1-.9-1.5-.8-.3-1.5-.1-1.5.4 0 1.2 2.9 4 4.1 4 .6 0 .7.5.4 1-.5.8-1.1.7-2.1-.1-.9-.7-1.4-.8-1.3-.3.4 2.2-.2 2.3-2.1.4-1.2-1.2-2.6-1.8-3.1-1.4-.8.4-.7.9.2 1.5.7.4 1.7.5 2.1.3.4-.3.8-.1.8.4 0 .6-.7 1.3-1.6 1.6-1 .4-1.3.2-.8-.6.4-.7.3-.8-.4-.4s-1.2.1-1.2-.6c0-.9-.3-.9-1 .2s-1 1.1-1 .2c0-.7-.4-1-1-.7-.5.3-1 .1-1-.4 0-.6-.5-1.1-1.1-1.1-.8 0-.7.6.2 1.7 1.2 1.5 1.2 1.6-.1.8s-1.3-.7 0 1.1c1.4 1.8 1.4 1.8-.4.4-1.1-.8-1.7-1-1.3-.4.4.8-.3 1.1-2.3.9-1.6-.1-2.8.1-2.5.5.3.4-.9.6-2.5.5-1.6-.1-2.7.1-2.4.6.3.5 0 .9-.6.9-.7 0-.9-.9-.5-2.3.5-1.9.5-2-.5-.4-.8 1.2-.8 2.2-.1 3 .6.8.6 1.8.1 2.7-.6.9-1 1-1 .3 0-1.5-3-1-4.4.8-1.2 1.5-4.8 2.5-4.4 1.2.2-.4 0-.9-.4-1.1-1.7-.5-2-.1-.9 1.2.7.9.8 1.7.3 2-.6.3-1.2 0-1.5-.8-.3-.8-1.7-1.3-3.6-1.1l-3.1.3 2-2.9 2.1-2.8h-2.3c-1.3 0-3.2-.1-4.3-.1-2-.1-5.5-4-3.5-4 .5 0 1 .5 1 1.1 0 .5.5.7 1.2.3.7-.4.8-.3.4.4-1.1 1.8.2 1.4 2.2-.6 1-1 1.7-2.5 1.4-3.3-.3-1.2-.2-1.2.6 0 1.2 1.6.4 4.4-.9 3.5-.5-.3-.9-.1-.9.4 0 1.9 2.9 2.1 3.5.2.7-2.1 3.2-3.3 4-2 .4.6 1.2 1 1.8 1 .7-.1.1-1-1.2-2.1s-2.2-2.2-1.9-2.4c.2-.3 1.4.4 2.7 1.6l2.2 2 3-2.5c1.7-1.4 3.6-2.6 4.2-2.6.7 0 0 .8-1.5 1.8-1.6.9-2.8 2-2.8 2.4 0 1.3.9.9 4.1-1.4 2.6-1.9 3.1-2 3.9-.8.9 1.4 1.1 1.2 1.4-2 0-.8.7-1.4 1.4-1.2.6.1 1.2-.2 1.2-.8 0-.5.5-1 1.1-1 .8 0 .8.5-.1 1.5-.7.8-1.6 1.2-2.1.9-.5-.3-.9 0-.9.5 0 1.5 2.1 1.3 4.4-.4 1.5-1.2 1.7-1.7.7-2.9-1.3-1.6-.6-4 .9-3.1.4.3 1-.2 1.4-1 .3-.8 1-1.5 1.6-1.5.5 0 .2.9-.7 1.9-.9 1.1-2 1.8-2.5 1.5-1.6-1-.7 1.3 1.2 3.1 1.1 1 1.7 2.2 1.4 2.6-.3.5 0 .9.5.9.6 0 1.1-.7 1.1-1.5 0-1.1.7-1.4 2.5-1.1 2 .4 2.4.1 2.2-1.7-.1-1.2-1.1-2.7-2.2-3.4-2.4-1.5-1.1-1.7 1.5-.3 1.1.6 1.7 1.6 1.4 2.3-.2.7.4 1.3 1.6 1.4 1.1.1 2-.2 2-.8 0-.5-.5-.9-1.1-.9-.5 0-.7-.5-.3-1.2.5-.8 1.1-.5 1.7 1 1.1 2.3 2.2 2.8 3.1 1.3.3-.5-.1-1.1-.9-1.5-.8-.3-1.5-1.1-1.4-1.8 0-1 .2-1 .6 0 .2.6.9 1 1.3.7.5-.3.7-1.2.4-1.9-.7-1.8 1.2-3 2.2-1.5.4.7.3.9-.3.6-.6-.4-1 .4-1 1.8 0 2 .3 2.3 1.6 1.6 1.8-1.1 1.9-5.7 2-103.1l.1-54.5 34.3-.1c27.1 0 35-.3 37.7-1.4 12.6-5.1 19.4-15.1 19.2-28.3-.1-7.7-3.7-15.2-9.8-20.6-8.6-7.5-2.1-7.1-112.8-7.1-80.7.1-99.8.3-102.9 1.4zm132.9 197.9c0 1.3-.6 2.4-1.3 2.4-.6 0-.9-.5-.5-1.1.4-.6.7-1.4.8-1.9.5-2.6 1-2.3 1 .6zm-7.1 3.7c.3.6-.1.7-.9.4-1.8-.7-2.1-1.4-.7-1.4.6 0 1.3.4 1.6 1zm5.2 2.2c0 1.3-.1 1.8-.4 1.1-.2-.7-1.2-.9-2.1-.6-1.3.4-1.2.2.3-1 1.1-.9 2-1.7 2-1.7.1 0 .1 1 .2 2.2zm-6.7-.8c0 .2-.8 1-1.7 1.7-1.6 1.3-1.7 1.2-.4-.4 1.3-1.6 2.1-2.1 2.1-1.3zm-37.5 1.5c.3.5.2 1.2-.3 1.5-.5.3-.9-.1-.9-.9 0-1.7.3-1.9 1.2-.6zm18.2 1.6c0 .8-.4 1.2-.9.9-.5-.3-.6-1-.3-1.5.9-1.3 1.2-1.1 1.2.6zm13.9 1.9c0 1.4-.3 2.3-.7 2-.6-.3-.6-2.2 0-4.2.3-1 .7.2.7 2.2zm7.9-1.5c.3.6-.3 1.4-1.3 2-1.4.7-1.9.6-1.9-.4 0-.7.7-1.1 1.5-.7 1 .3 1.3.1.8-.6-.4-.7-.5-1.2-.2-1.2s.7.4 1.1.9zm-17.5 1.3c0 .6-.3.8-.7.5-.3-.4-1.3-.1-2.2.6-1.4 1.1-1.4 1-.2-.6 1.5-2 3.1-2.2 3.1-.5zm12.3.3c-.3.9-.8 1.4-1 1.1-.3-.3-.2-.9.2-1.5.9-1.6 1.5-1.3.8.4zm11.7-.5c0 .5-.2 1-.4 1-.3 0-.8-.5-1.1-1-.3-.6-.1-1 .4-1 .6 0 1.1.4 1.1 1zm-4.7 1.5c-.3.9-.8 1.4-1 1.1-.3-.3-.2-.9.2-1.5.9-1.6 1.5-1.3.8.4zm-45.8.5c.3.5.1 1-.4 1-.6 0-1.1-.5-1.1-1 0-.6.2-1 .4-1 .3 0 .8.4 1.1 1zm18.5.4c-.7.7-1.3.7-2 0-.6-.6-.3-1 1-1s1.6.4 1 1zm11.7.2c-.3.3-1.2.4-1.9.1-.8-.3-.5-.6.6-.6 1.1-.1 1.7.2 1.3.5zm-7.4 2.1c-.3.7-.8 1.3-1.2 1.3-.4 0-.8-.6-.8-1.3 0-.8.6-1.4 1.3-1.4.7 0 1 .6.7 1.4zm19.6-.7c-.6.5-1.8.6-2.6.3-1.9-.8-1.6-1.1 1.3-1.1 1.7 0 2.2.3 1.3.8zm-8.2 3c-.1 1.1-.5 2-.9 2-1 0-1-.4-.2-2.4.8-2.2 1.3-2 1.1.4zm-30 .5c0 .8-.5 1.1-1 .8-.6-.4-.8 0-.5.8.4 1-.1 1.5-1.3 1.5s-1.5-.4-.9-1.2c.6-.6.6-1.5.2-1.9-.4-.5-.2-.5.5-.1.6.3 1.4.2 1.8-.4.9-1.4 1.2-1.3 1.2.5zm13.4.3c-.7.2-1.8-.1-2.3-.6-.8-.8-.4-.9 1.3-.5 1.3.4 1.8.8 1 1.1zm7.9.2c-2 1.3-3 1.2-3-.1 0-.5.4-.8.9-.4.5.3 1.3 0 1.6-.6.4-.5 1-.8 1.3-.4.4.3 0 1-.8 1.5zm12 0c0 .5-.4 1-1 1-.5 0-1-.5-1-1 0-.6.5-1 1-1 .6 0 1 .4 1 1zm-15.4 2.8c.1.7 0 .8-.3.2-.2-.5-.9-.8-1.4-.5-.5.4-1.7.2-2.6-.4-1.5-.8-1.3-1 1.1-.8 1.6.1 3.1.8 3.2 1.5zm-14.1.1c-.6.5-2.1 1.1-3.5 1.5-2.1.5-2 .3.5-.9 3.5-1.7 4.2-1.8 3-.6zm7.4 1.1c-.7.5-1.9.6-2.6.3-1.1-.5-1.2-.8-.2-1.3.7-.5 1.9-.6 2.6-.3 1.1.5 1.2.8.2 1.3zm-16.4 0c.3.6-.1.7-.9.4-1.8-.7-2.1-1.4-.7-1.4.6 0 1.3.4 1.6 1zm12.5 1c.8.5 1.2 1.1 1 1.4-.3.2-1.4-.2-2.4-1-2.2-1.5-1-1.9 1.4-.4zm-12.6 2.5c.3.8.1 1.5-.4 1.5-.6 0-1-.7-1-1.5s.2-1.5.4-1.5.6.7 1 1.5zm50.6.5c-.9.6-1 1-.3 1 .6 0 1.1.9 1 2-.1 2.1-1.2 2.6-2.2 1-.3-.6-.1-1 .5-1s.8-.5.4-1.1c-.4-.8-1.2-.2-2.1 1.5-1.3 2.5-3.3 2.8-3.3.5 0-.6.4-.8.9-.5.5.3.8-.2.7-1.1 0-1 .4-1.8 1.1-1.8.6 0 1.5-.3 1.9-.8.4-.4 1.2-.7 1.8-.7.6 0 .4.5-.4 1zm-11.4 2.7c-.3.7 0 1.5.6 1.9.7.4.8.3.4-.4-.6-1.1 0-1.4 2-1.1.4 0 1.1-.5 1.6-1.3.7-.9.8-.8.4.5-.3 1-.6 2.2-.6 2.7 0 .9-5.4.5-7-.5-.5-.3-1.1-.1-1.5.5-.4.6-1.2.7-1.8.3-2-1.3-3.6-1.2-4.8.3-.6.8-.7 1.4-.2 1.4 1.4 0 1.3 3.8-.2 5-1 .8-1.5.8-2 0s-1.1-.8-2.1.1c-1.1.9-1.9.8-3.5-.7-1.2-1.1-2.3-1.8-2.5-1.7-.2.2-.3 0-.1-.5.1-.4.7-.5 1.2-.3.6.2 1.8.3 2.8.3 1.6-.1 1.7.1.5 1.6-1.1 1.5-1.1 1.6.3.4.9-.7 2.3-1 3.2-.6.8.3 1.8.1 2.2-.5.4-.7-.1-.8-1.2-.4-1.6.6-1.6.5-.4-1 .7-1 .9-1.7.3-1.7-.6 0-1.2.5-1.4 1.2-.2.6-1 .8-1.6.4-1.9-1.2.4-4.6 2.8-4.1 1.1.2 2.2 0 2.4-.4.3-.4 2.3-.7 4.6-.6 3.1.1 3.8-.1 2.9-1.1-.8-1-.6-1.2 1-1.1 1.3.1 2 .6 1.7 1.4zm-35.9 4.7c.3.3.1 1.1-.3 1.8-1.2 1.9-1.4 3.8-.3 3.8.5 0 .9-.4.9-.8 0-.5.7-.9 1.6-.9 1.5 0 1.5.1 0 1.2-1.5 1.1-1.5 1.3-.1 1.9.9.3 1.4.2 1.2-.2-.3-.4.1-1.2.8-1.9 1-.9 1.4-.9 1.8.1.6 1.4 4.2 1.5 5.4.1.5-.4.1-.5-.7 0-.9.5-1.2.4-.7-.1 1.1-1.1 6.7-1.4 6.7-.3 0 1.4-1.8 2-2.5.9-.4-.7-1.6.1-3 2-1.9 2.5-2.4 2.8-3.4 1.6-.7-.8-2.2-1.3-3.3-1.1-1.1.3-3.3-.4-4.7-1.4-2.9-2.1-5.9-1.8-4.1.4.7.8.7 1.5.1 1.9-1.9 1.2-3.7-4-2-6 .7-.8.6-1.4-.3-1.7-1-.4-1-.8.2-1.6 1.4-1 5.6-.8 6.7.3z"/><path d="M171.3 440.5c.4.8.2 1.7-.3 2-.6.4-1 1.2-1 1.8 0 .9.2.9.8.1.4-.6 1.5-1 2.5-.8 1.1.1 1.6 0 1.3-.3-.3-.4-.1-1.2.5-2 .6-.7 1-1.3.8-1.4-4.6-.9-5.1-.8-4.6.6zm3.7 0c0 .2-.6.8-1.3 1.4-1 .8-1.4.7-1.4-.2 0-.8.6-1.4 1.4-1.4.7 0 1.3.1 1.3.2zM367.3 288.5c0 .8.4 1.2.9.9.5-.3.6-1 .3-1.5-.9-1.3-1.2-1.1-1.2.6zM363 291.9c0 .6.4 1.3 1 1.6.6.3.7-.1.4-.9-.7-1.8-1.4-2.1-1.4-.7zM363.3 296.7c0 1.1.7 2 1.4 2 1 0 1-.4.1-1.6-.7-.9-1.3-1.8-1.5-2-.1-.2-.1.5 0 1.6zM372 299.5c0 .2.6.8 1.3 1.4 1 .8 1.4.7 1.4-.2 0-.8-.6-1.4-1.4-1.4-.7 0-1.3.1-1.3.2zM385 300.1c0 .5.5.7 1 .4.6-.3 1-.8 1-1.1 0-.2-.4-.4-1-.4-.5 0-1 .5-1 1.1zM363.7 301.1c.7.7 1.5 1 1.8.7.3-.3-.2-.9-1.2-1.2-1.4-.6-1.5-.5-.6.5zM393.2 301.5c.4.4.2 1.5-.4 2.3-1.2 1.3-2.2 4.9-1.1 3.9.2-.3.3-.7.1-1-.1-.3.5-1.4 1.5-2.5 1.5-1.6 1.6-2.2.5-2.8-.7-.4-1-.4-.6.1zM369.5 302.9c-.3.6.3 1.4 1.3 2 1.4.7 1.9.6 1.9-.4 0-.7-.7-1.1-1.5-.7-1 .3-1.3.1-.8-.6.4-.7.5-1.2.2-1.2s-.7.4-1.1.9zM379.5 302.9c-.3.5-.2 1.2.3 1.5.5.3.9-.1.9-.9 0-1.7-.3-1.9-1.2-.6zM363.3 304.6c0 .9.5 1 1.9.3 1-.5 1.8-1.2 1.8-1.4 0-.2-.8-.3-1.8-.2-1 0-1.9.7-1.9 1.3zM376.1 304.4c-.9 1.1-.9 1.6 0 2.2.8.5.9.3.4-.6-.6-1-.4-1.2.8-.7 1.1.4 1.4.2 1-.9-.6-1.7-.8-1.7-2.2 0zM367 306c0 .5.5 1 1 1 .6 0 1-.5 1-1 0-.6-.4-1-1-1-.5 0-1 .4-1 1zM363.3 310.7c-.1 3.3 0 3.5.7 1.3.9-2.7 1.1-2.6 1.5.7.1 1.4-.3 2.3-1.1 2.3s-1.4.5-1.4 1.1c0 .6.6.9 1.3.6.7-.3 2.4.3 3.7 1.3 2.4 1.8 2.4 1.9.6 3.9-1.6 1.7-1.7 2.3-.6 3.6 1.7 2 .1 3.8-2 2.4-1.3-.9-1.2-1 .3-.5 1.9.6 2.4-.9.6-1.9-.6-.4-.8-1.4-.5-2.2.4-1 .2-1.3-.8-1-1 .4-1.3-.1-1.1-1.9.1-1.3-.1-2.4-.5-2.4-.5 0-.8 1.6-.8 3.5s.4 3.2.9 2.9c.5-.3.9 0 .9.5 0 .6-.4 1.1-.9 1.1-1.5 0-1.4 20 .1 21.8.8 1 .9 1.3.1.9-.9-.6-1.2 11.9-1.3 52.1-.1 57.4-.1 58-6 71.7-5.4 12.7-18.1 25.8-31.3 32.4-11 5.5-19 7.4-31.2 7.5-12.1 0-19.9-1.9-31.4-7.5-6.9-3.4-10.3-6-18.4-14-11.9-11.7-16.3-14.1-26.2-14.2-11.7-.1-21.2 6.1-26.3 17.1-2.1 4.7-2.4 6.5-2 13.2.6 9.8 3 14.2 14.1 25.4 24.8 24.9 55.3 37.6 90.2 37.6 21 0 38.7-4.2 57-13.5 37.7-19.1 62.7-54.5 68.5-97 .7-5.1 1-29.7 1-67.8l-.1-59.7-2.2 1.1-2.2 1 2.3-2c2.2-1.9 3-5.1 1.2-5.1-.5 0-.7.8-.3 1.7.5 1.5.3 1.5-1.4-.2-1.1-1.1-1.9-2.3-1.6-2.8.2-.4 0-.7-.6-.7-.5 0-1.3.9-1.6 2-.4 1.1-1.1 1.8-1.6 1.5-.5-.3-.2-1.7.7-3.1.9-1.3 1.2-2.4.6-2.4-.9 0-1.8 1.9-2.7 5.8-.2.6.1 1 .6.6.5-.3.9 0 .9.6s-.8 1-1.7.8c-1-.2-1.7-1.1-1.5-2 .1-.9-.5-1.9-1.4-2.2-1.4-.5-1.4-.9-.3-2.2.7-.9 2.2-2 3.4-2.4 1.4-.6 1.6-.9.4-.9-.9-.1-2.4.8-3.4 1.9-2.1 2.3-4.4 2.8-2.5.5 1-1.2.9-1.6-.4-2.1-.9-.3-1.3-1-1-1.5.3-.5-.1-1.2-.9-1.5-.9-.3-1.3-1.4-1.1-2.7.4-2.1.4-2.1-.5-.2-.6 1.4-.5 2.3.6 3.2 1.6 1.2 1.6 1.9.1 4.6-.7 1.5-1.2 1.6-2.4.6-.8-.6-1.4-1.6-1.4-2.1 0-.6.7-.5 1.5.2 1 .9 1.5.9 1.5.1 0-.6-.5-1.1-1.1-1.1-.5 0-.7-.5-.4-1 .3-.6.2-1-.4-1-.5 0-1.2.8-1.5 1.8-.7 2.2-4.7 2.4-4.3.2.1-.8 1-1.7 2-2 1-.3 1.8-.9 1.7-1.5-.1-.5.7-1.3 1.7-1.7 1.7-.7 1.7-.8-.1-.5-1.1.1-1.9.6-1.7 1.2.1.5-.8 1.3-2.1 1.6-1.3.3-2.2 1.1-2 1.7.6 2.9-2.6.8-4.6-3.1-2-3.7-2.3-3.4-.6.8 1 2.6-1.2 1.6-2.4-1-1.2-2.5-3.2-3.4-3.2-1.4 0 .5.5.7 1 .4.6-.3 1-.2 1 .2 0 .5-.9 1.4-2.1 2.1-1.9 1.2-2 1.1-1.4-1 .3-1.3.3-1.9-.2-1.3-.4.5-1.6 1.6-2.6 2.4-1.7 1.3-1.8 1.2-1.3-1.4.3-1.6 0-3.5-.6-4.2-1.3-1.6.3-1.8 1.9-.2.6.6.9 1.8.6 2.6-.5 1.2-.1 1.1 1.5-.3 2.4-2 2.8-3.4 1.1-3.4-.5 0-.7.4-.4 1 1 1.6-1.1 1.2-2.5-.5s-4-2-4-.6c0 .6.5 1.3 1 1.6.6.3 1 1.1 1 1.7 0 .7-.5.7-1.4-.1-.7-.6-2.1-.9-3-.5-1.2.5-1.5.2-1-1 .3-.9.1-1.6-.6-1.6-.6 0-.8.4-.5 1 .3.5.2 1-.3 1-.6 0-1.3-.7-1.6-1.6-.9-2.3-.8-2.4 1.2-1.8 1.4.5 1.5.4.2-.5-1.1-.8-1.8-.7-2.6.4-1.3 1.7-2.5.9-1.7-1.1.3-.8-.1-1.4-.9-1.4-1 0-1.5 1.2-1.5 3.7zm9.6 3.8c2.1-.6 4.8 1.9 3.1 3-.5.3-1 1.1-1 1.6 0 .6.5.7 1 .4.6-.3 1-.1 1 .6s.6.5 1.3-.6c1-1.2 1.6-1.4 2.1-.7.5.9 1.4.8 3-.3 2.1-1.4 2.4-1.4 3 .1.4.9 1.2 1.4 2.2 1 .8-.3 1.3-.2 1 .3-.6.9 4.3 3.5 6.2 3.2.6-.1 1.2.3 1.2.8s-.9.8-2 .6c-1.2-.2-1.8 0-1.5.6.4.5.9.7 1.3.5.4-.2 1.6.3 2.7 1.1 1.9 1.5 1.9 1.5-.4.8-1.7-.5-2.2-.4-1.9.6.3.8 1.3 1.4 2.4 1.4 1.3 0 1.8.6 1.6 1.7-.2 1 .2 1.8.8 1.8.5 0 1-.4 1-.8s1-.8 2.3-.9c2.1-.2 2.1-.1-.3 1.2-1.4.8-2 1.4-1.4 1.5.7 0 2.2-.9 3.5-2.1 1.3-1.1 1.8-1.7 1-1.3-.9.5-1.2.3-.7-.4.8-1.4 4.6.2 4.6 1.8 0 1.7 3-.2 4.3-2.7l1.3-2.4 2 2.2c1.9 2.2 1.9 2.2-.3 1.5-1.2-.4-2.4-.2-2.8.3-.3.7 0 .8.9.5.9-.3 1.6-.1 1.6.5s-.6 1.1-1.4 1.1c-.8 0-1.7.4-2 .9-.4.5.9.8 2.8.7 3.1-.3 3.3-.1 3.2 2.4 0 2-.5 2.6-1.6 2.2-1.2-.4-1.1-.1.2 1.5 1.6 1.7 1.6 2.2.4 3.9-1.2 1.6-1.7 1.7-2.8.6-1.1-1.1-1-1.2.6-.6 1.4.5 1.7.4 1.2-.5-.5-.7-1.6-1.1-2.6-.8-1.3.3-1.7 0-1.3-.9.4-1 1-1.1 2.3-.4 3.1 1.7 3.7 1.1 1.1-1.1l-2.4-2-2.1 2.4c-1.2 1.3-2.9 3-3.9 3.7-1.5 1.1-1.8 1.1-1.5-.1.2-.8-.3-1.3-1-1.1-.8.1-1.1-.2-.8-.7.4-.5-.3-.9-1.4-.8-2.2.1-2.7 1.3-.8 1.9.8.3.7.6-.4 1-1.1.5-1.5 0-1.4-1.4.1-2.6 3.4-3.3 5.8-1.2 1.5 1.4 1.8 1.4 3.8-.6 1.2-1.2 1.9-2.5 1.5-2.8-.3-.4-1.1 0-1.6.8-.9 1.2-1 1.2-.5-.3.6-1.9-.2-2.1-2.4-.7-1 .6-1.1 1-.2 1 .6 0 1.2.5 1.2 1.2 0 .6-.9.3-2-.7s-2.3-1.5-2.7-1.2c-.3.4-1.5 0-2.5-.9-1.4-1.4-2-1.4-3.3-.4-.8.7-1.5.8-1.5.4 0-.5.9-1.5 2.1-2.2 1.2-.7 1.8-1.6 1.5-1.9-.3-.3-1.4 0-2.3.8-1.6 1.3-1.7 1.2-.5-.3s1.1-1.7-.7-1.5c-1.6.1-1.9.6-1.5 2.7.4 2.3.4 2.3-.5.4-1-2.3-3.1-4.1-3.1-2.7 0 .5.3 1.3.8 1.9.4.5-.2 0-1.3-1.2s-2.7-2.4-3.5-2.8c-.8-.3-.5-.4.7-.2s2.8-.3 3.4-1c1-1.3.7-1.4-1.9-.9-2 .3-3.2.1-3.2-.5s.5-.8 1-.5c.6.3 1 .2 1-.2 0-.5-.9-1.4-1.9-2-1.7-1.1-1.9-.9-1.6 2.5.1 2.5.7 3.8 1.9 4 .9.2 1.9 1.4 2.2 2.8.3 1.3.9 2.2 1.3 2 .4-.3 1.3-.1 2.1.4 1.1.7.9.9-.9.7-1.3-.1-2.6-.9-2.9-1.9-.6-2.6-5.1-5.3-6.5-3.9-.8.8-.6 1.1.6 1.1.9 0 1.7.5 1.7 1.1 0 .5.5.7 1.2.3.7-.4.8-.3.4.4-.5.9-1.4.7-3.1-.4-2.5-1.6-2.4-4.4.1-4.4 1.6 0 1.9-1.6.4-2.5-.6-.4-.8-1.1-.5-1.6.3-.5-.1-.6-1-.3-1.1.5-1.3 1-.5 1.9.8.9.6 1.4-.7 1.9-1.1.5-2.3-.1-3.6-1.6-1.3-1.5-1.7-1.7-1.3-.6.3 1.2.1 1.5-.9 1.2-1.1-.5-1-1.1.7-3.5 1.2-1.5 2.5-2.6 2.9-2.3.5.3.6-.2.3-1-.5-1.2-1-1.3-2.4-.4-1 .7-1.7 1.5-1.5 1.9.3.3-.4 1.4-1.5 2.4-1 .9-1.7 2.2-1.6 2.8.2.7.1.9-.1.5-.3-.5-1.4-.3-2.6.3-1.2.6-.6-.3 1.3-1.9 1.9-1.7 3-3.1 2.3-3.2-.6 0-1.5.5-1.9 1.1-.5.8-1 .7-1.6-.4-.5-1.1-.4-2.4.4-3.7 1.1-1.9 1-2.4-1.3-4.3-1.4-1.2-2.4-2.8-2.3-3.5.1-.6.2-1.7.3-2.2 0-.6 1-.1 2.2 1.1 1.2 1.2 2.7 1.8 3.8 1.4zm32.3 8.7c-.9.9-.6 1.7 1.5 3.5 1.6 1.2 2.2 2.2 1.6 2.3-.7 0-1.3-.5-1.3-1 0-.6-.9-.1-2.1 1.1-2.3 2.3-3.3 2.1-2.3-.5.5-1.4.9-1.5 1.6-.4.8 1 .9 1 .5-.2-.2-.8-.9-1.4-1.5-1.3-.8.2-.8-.4 0-2.2.6-1.4 1.6-2.5 2.2-2.5.6 0 .5.5-.2 1.2zm-3.2 4.9c0 1.3-1.8 2-2.5.9-.3-.5-.1-1 .5-1 .7 0 .6-.5-.2-1.4-.7-.8-1.6-1.2-2-.9-.4.2-.5-.4-.1-1.3.6-1.5.8-1.5 2.5.6 1 1.2 1.8 2.6 1.8 3.1zm-35.5 1.9c.3.6-.1.7-.9.4-1.8-.7-2.1-1.4-.7-1.4.6 0 1.3.4 1.6 1zm11.5 1.4c0 .2-.9.6-2 .9-1.1.3-2 .1-2-.4s.9-.9 2-.9 2 .2 2 .4zm-4.7 2c.4 1 .1 1.3-.8.9-.8-.3-1.2-.9-.9-1.4.7-1.2 1.1-1.1 1.7.5zm-5 1.9c.4-.3.7-.1.7.5s-.8 1-1.8.9c-1 0-1.9-.7-1.9-1.4 0-.9.4-1 1.2-.3.7.5 1.5.7 1.8.3zm12.7.8c0 .4-1.3.6-3 .5-1.6 0-3-.4-3-.7 0-.4 1.4-.6 3-.5 1.7 0 3 .4 3 .7zm7.8 3.7c.8 2.4.7 2.8-.9 2.8-1.2 0-1.5-.4-.8-1.2.5-.6.7-1.9.3-2.8-.3-.9-.4-1.6-.1-1.6.3 0 .9 1.3 1.5 2.8zm-17.8-.4c0 .3-.4.8-1 1.1-.5.3-1 .1-1-.4 0-.6.5-1.1 1-1.1.6 0 1 .2 1 .4zm13.2.7c.2.2.1.3-.1.2-.2-.2-.9.2-1.6.7-.8.7-1.2.5-1.2-.4 0-1.2 2.2-1.6 2.9-.5zm13.8.4c0 .2-.9.3-1.9.2-1.1 0-1.8-.5-1.5-.9.4-.6 3.4 0 3.4.7zm3-.8c0 .5-.5 1.5-1 2.3-.7 1.2-.9 1-.7-.8.1-1.9 1.7-3.3 1.7-1.5zm-34.5 1.2c.3.5.2 1.2-.3 1.5-.5.3-.9-.1-.9-.9 0-1.7.3-1.9 1.2-.6zm29 3c-.8 1.4-2.5 1.4-2.5 0 0-.5.5-.7 1-.4.6.3 1 .1 1-.6s.3-1 .6-.6c.3.3.3 1-.1 1.6zm-14 0c-.9.8-3.6 1-3 .2.2-.4 1.1-.8 2-.8.8 0 1.3.3 1 .6zm4 2.1c-.3.5-1.2 1-1.8 1-.7 0-.6-.4.3-1 1.9-1.2 2.3-1.2 1.5 0zm29.5.5c.7.8 1 1.5.6 1.5-1.6 0-2.1-.3-1.8-1.1.1-.5-.8-.9-2-.9-2.1 0-2.1 0-.2 2.2l1.9 2.3-2.2-1.9c-1.3-1-2-2.3-1.7-2.7.8-1.4 4-1 5.4.6zm4.2 2c-.8 1.6-.9 1.6-1.5.1-.4-1-.3-1.5.3-1.1.6.3 1 .1 1-.6s.3-1 .6-.6c.3.3.2 1.3-.4 2.2zm-32.2.9c0 .3-.4.8-1 1.1-.5.3-1 .1-1-.4 0-.6.5-1.1 1-1.1.6 0 1 .2 1 .4zm18.1.9c-.6.8-.7 1.8-.3 2.2.4.5.1.5-.6.1-1-.6-1-1.1-.1-2.2.6-.8 1.4-1.4 1.6-1.4.3 0 0 .6-.6 1.3zm-3.2 2.1c.8 1 .9 1.6.1 2.1-.6.4-.9.1-.8-.7.2-.7-.4-1.3-1.2-1.3-.8 0-1.4.6-1.2 1.3.1.8-.2 1.1-.8.7-1.1-.7.5-3.5 2-3.5.4 0 1.3.6 1.9 1.4zm10.2.9c-1 .9-1.1.8-.5-.6.3-1 .9-1.5 1.2-1.2.3.3 0 1.1-.7 1.8zm7.5-1.1c.4.7.3.8-.4.4s-1.2-.2-1.2.5-.3 1-.6.6c-.6-.5.3-2.7 1.1-2.7.2 0 .7.5 1.1 1.2zm-24.2 1.6c.3.5-.1.9-.9.9s-1.2-.4-.9-.9c.3-.4.7-.8.9-.8.2 0 .6.4.9.8zm14.1.2c.3.6-.1.7-.9.4-1.8-.7-2.1-1.4-.7-1.4.6 0 1.3.4 1.6 1zm4.5 1.5c-.7.8-1.7 1.5-2.3 1.5-.6 0-.2-.7.9-1.5 2.5-1.9 3-1.9 1.4 0zm5.4.3c.3.5-.1.9-.9.9s-1.2-.4-.9-.9c.3-.4.7-.8.9-.8.2 0 .6.4.9.8zm-22.6 8.7c-.3.3-.9-.2-1.2-1.2-.6-1.4-.5-1.5.5-.6.7.7 1 1.5.7 1.8z"/><path d="M367.3 314.3c0 1 .3 1.5.5 1.2.6-.5 5.2 5.4 5.2 6.7 0 .4-.5.7-1.1.5-.6-.1-1.3.3-1.6.9-.2.7.6 1.1 2.1 1 1.3 0 2.2-.4 2-.8-.3-.4.4-1.1 1.3-1.7 1.4-.8 1.5-1.1.3-1.2-.8-.1-1.8-.1-2.2 0-1.4.2-.9-1.6.7-2.9 1.2-1 1.3-1.6.5-2.4-.8-.8-1.3-.7-1.9.2-1.1 1.9-1.9 1.7-4-.9-1.4-1.8-1.8-1.9-1.8-.6zm7.7 2.1c0 .2-.6.9-1.4 1.5-1.1.9-1.6.9-2.2 0-.4-.7-.3-.9.4-.5.6.3 1.3.2 1.7-.4.6-1 1.5-1.4 1.5-.6zM381.7 320.8c-.8 1-1.2 2.3-.9 3.1.3 1 0 1.2-1.2.8-1-.4-1.5-.3-1.1.3.3.6.1 1-.4 1-.7 0-.7.7.1 2 1.4 2.2 3 2.7 2.7.7-.3-2.2.1-4 .7-3.4.4.3 1.5.2 2.4-.3 1.3-.7 2.4-.3 4.4 1.5 1.4 1.3 2.6 1.9 2.6 1.3 0-.7.6-.6 1.5.2 1.4 1.2 1.4 1.5 0 3-1.4 1.6-1.3 1.7 1.4 1.6 1.7-.1 3.6-.7 4.3-1.4 1.1-1.1.8-1.1-1.5-.3-1.7.7-2.6.7-2.2.1.3-.5-.1-2.2-.9-3.8-.8-1.6-1.2-3.3-.8-3.8.4-.5 0-.3-1 .4-1.1.9-1.8 1-2.3.2-.3-.5 0-1 .7-1 .9 0 .9-.3-.2-1-.9-.6-1.8-.6-2.4 0-1.6 1.6-3 1.1-1.6-.5.7-.8 1.1-1.5.9-1.6-3.1-.6-4-.5-5.2.9zm3.3.7c-.5.7-.7 1.4-.4 1.7.2.3-.2.8-1 1.1-1.1.4-1.3.1-.9-1 .5-1.2.3-1.4-.8-.8-1.1.7-1.2.6-.2-.6.7-.9 1.9-1.6 2.8-1.6 1 0 1.2.4.5 1.2zm3.6 1.4c-.8 1.2 1.9 3.3 2.9 2.3.5-.4.5-.1.1.6-.6 1-1.1 1.1-2.4 0-1-.7-1.9-1.3-2.1-1.5-.4-.2.9-2.3 1.5-2.3.3 0 .3.4 0 .9zM405.2 333c-1.2 1-2.8 2-3.5 2.3-.6.2-.8.8-.4 1.3s1.3.2 1.8-.6c.8-1.2.9-1 .4.6-.5 1.8-.2 2.1 1.9 1.9 3.4-.4 4.8-1.4 4.2-3.1-.3-.8 0-1.1.9-.8.8.3 1.2 1.1.9 1.9-.3.7.2 1.5 1 1.8 1.2.5 1.3.2.6-1.7-.6-1.6-.5-2.8.3-3.6 1-1 .7-1-1.1-.1-1.8 1-2.3.9-2.8-.4-.8-1.9-1.4-1.9-4.2.5zm3.5 2.3c.4 2.1.3 2.1-1.2.2-1.2-1.6-1.4-1.7-.9-.3.3 1 .2 1.8-.4 1.8-1.1 0-1.1-1.8.2-3.8 1-1.6 1.9-.9 2.3 2.1zM414.6 335.8c-.2.4 0 1.4.5 2.2.8 1.2 1.2 1.2 1.6.2.2-.6 1-.9 1.6-.5.7.4.6-.1-.2-1-1.5-1.8-2.7-2.2-3.5-.9zM373.4 307.9c.4.5.1 1.2-.4 1.4-.6.3-.5.4.2.3 1.5-.3 2.3-2.6.8-2.6-.6 0-.9.4-.6.9zM382.7 308.7c.3.7.9 1 1.4.7 1.4-.8 1.1-2.1-.5-2.1-.8 0-1.2.6-.9 1.4zM379.5 309c-.3.5-.1 1 .4 1 .6 0 1.1-.5 1.1-1 0-.6-.2-1-.4-1-.3 0-.8.4-1.1 1zM385.4 310.1c-.4.7-.3.9.4.5.5-.3 1.3 0 1.5.6.4.9.6 1 .6.1.1-1.7-1.6-2.5-2.5-1.2zM391 309.9c0 .6.4 1.2.8 1.5.5.3.9-.1.9-.9s-.4-1.5-.9-1.5c-.4 0-.8.4-.8.9zM403.6 309.8c-.2.4-.1 1.4.4 2.2.7 1.1.9.9.7-.8-.1-2.4-.3-2.6-1.1-1.4zM389.4 312.9c.1 1.6 3.6 2.5 3.6.9 0-.6-.6-.8-1.4-.5-.8.3-1.7.1-1.9-.6-.2-.7-.4-.6-.3.2zM396.5 312c-.3.6.1.7.9.4 1.8-.7 2.1-1.4.7-1.4-.6 0-1.3.4-1.6 1zM409 311.9c0 .6.4 1.3 1 1.6.6.3.7-.1.4-.9-.7-1.8-1.4-2.1-1.4-.7zM415.3 314.5c0 .8.4 1.2.9.9.5-.3.6-1 .3-1.5-.9-1.3-1.2-1.1-1.2.6zM393.7 315.4c-.4.9-1.1 1.4-1.7 1.1-.5-.3-1-.1-1 .4 0 1.3 1 1.4 2.9.2.7-.5 1.1-1.5.9-2.2-.3-.9-.6-.8-1.1.5zM405.5 316.9c-.9 1.5 1.5 2.5 2.8 1.2.9-.9.7-1-.7-.5-1.3.5-1.7.4-1.2-.4.4-.7.5-1.2.2-1.2s-.7.4-1.1.9z"/><path d="M365.3 318.8c0 1.9 1.7 3.3 2.9 2.6 1.3-.8.9-1.8-1-3.1-1.5-.9-1.9-.8-1.9.5zM408 320c-.8.5-1 1-.5 1 .6 0 1.7-.5 2.5-1s1.1-1 .5-1c-.5 0-1.7.5-2.5 1zM419.5 320c.3.5.8 1 1.1 1 .2 0 .4-.5.4-1 0-.6-.5-1-1.1-1-.5 0-.7.4-.4 1zM414.8 321.7c.7.3 1.6.2 1.9-.1.4-.3-.2-.6-1.3-.5-1.1 0-1.4.3-.6.6zM418 321.4c0 .2.7.9 1.5 1.6.9.7 1.5.8 1.5.2 0-.5-.7-1.2-1.5-1.6-.8-.3-1.5-.4-1.5-.2zM410.2 324.6c-.7.8-.8 1.4-.3 1.4 1 0 2.5-1.9 2-2.5-.2-.1-1 .3-1.7 1.1zM417.6 324.3c.3 1 .9 1.5 1.2 1.2.3-.3 0-1.1-.7-1.8-1-.9-1.1-.8-.5.6zM215.5 425.7c.6 1.3-.2 1.6-3.7 1.6-.9 0-1.9.6-2.2 1.4-.3.8-.1 1.1.4.8.6-.3 1-.1 1 .6 0 .8.6.7 1.8-.4 1.3-1.2 2.2-1.3 3.5-.5 2.7 1.5 3 .4.6-2.3-1.1-1.3-1.8-1.8-1.4-1.2zM203.2 428.8c-1 1-2.4 1.6-3 1.4-.7-.2-1.5.4-1.8 1.2-.6 1.5-.8 1.5-2-.1-.9-1.2-1.3-1.4-1.4-.5 0 .7-.4 1.1-.9.8-.5-.3-1.4.1-2.1 1-.7.8-1.9 1.3-2.6 1-1.7-.6-7.7 1.8-6.8 2.7.4.4 1.4.1 2.2-.6 1.3-.9 1.4-.9.8.1-1 1.6 2.6 1.1 4.8-.7.9-.8 1.9-1.1 2.3-.7.3.3.1.6-.5.6-.7 0-1.1.6-.9 1.2.1.7-.4 1.2-1.1 1-.9-.1-1.1.2-.6 1 .5.8.1.7-1.1-.2-1.4-1.1-1.7-1.1-1.1-.2.7 1.1.4 1.2-1.2.3-1.5-.8-2.3-.8-2.7 0-.4.6-1.3.8-2.1.5-.7-.3-1.8.3-2.4 1.4-.8 1.6-.7 1.8.9 1.5 1-.2 2.8-.9 4-1.7 1.8-1.1 2.3-1.1 3.1.2.8 1.2 1.1 1.2 2.7-.2 1-.8 2.6-1.4 3.6-1.3 1.3.2 1.5 0 .9-.8-1.4-1.7-1.1-4.5.5-5.1.8-.3 1.6.1 1.9.8.5 1.4 2 1.6 3.9.5.6-.4 1.8-.5 2.7-.4.9.2 2.2-.3 2.9-1.1.8-1 .8-1.4 0-1.4-.6 0-1.1.6-1.1 1.2 0 .9-.3.8-.9-.2-1.2-1.8-.5-3.1 1.3-2.4.7.3 1.3-.2 1.3-1.1 0-2-1.3-1.9-3.5.3zm-3.1 4.5c-1 .9-1.1.8-.5-.6.3-1 .9-1.5 1.2-1.2.3.3 0 1.1-.7 1.8z"/><path d="M180.1 434.4c-1 1.2-.8 1.7 1.1 2.7 1.8.9 2.1.9 1.1-.1-.6-.7-.9-1.9-.6-2.6.7-1.8-.1-1.8-1.6 0zM211 440c0 .5.5 1 1.1 1 .5 0 .7-.5.4-1-.3-.6-.8-1-1.1-1-.2 0-.4.4-.4 1zM221.2 440.7c.4 2.3 4.4 2.4 4.5.1.2-1.6 0-1.7-1.3-.3-2 1.9-2.8 1.9-2 0 .3-.8.1-1.5-.5-1.5s-.9.8-.7 1.7zM216 442.1c-1.2.9-1.2 1 .4.5 1.4-.5 1.7-.3 1.2 1.1-.6 1.5-.5 1.6.5.5 1.8-1.7-.1-3.5-2.1-2.1zM212.7 443.3c-.3.8.1 1.4.8 1.4.7 0 1.1-.6.8-1.4-.3-.7-.6-1.3-.8-1.3-.2 0-.5.6-.8 1.3zM219.4 444.8c-.9 1.4-.8 1.8.6 1.8 1.1 0 1.5-.6 1.2-1.8-.2-1-.5-1.8-.6-1.8-.1 0-.6.8-1.2 1.8zM223.3 445.7c0 .9.4 1 1.4.2.7-.6 1.3-1.2 1.3-1.4 0-.1-.6-.2-1.3-.2-.8 0-1.4.6-1.4 1.4zM211.5 447c-.3.6.1.7.9.4 1.8-.7 2.1-1.4.7-1.4-.6 0-1.3.4-1.6 1zM215 446.4c0 .2.8 1 1.8 1.7 1.5 1.3 1.6 1.2.3-.4s-2.1-2.1-2.1-1.3zM199.9 448.7c-1.3 1.6-1.2 1.7.4.4 1.6-1.3 2.1-2.1 1.3-2.1-.2 0-1 .8-1.7 1.7zM203 447.4c0 .2.7.7 1.6 1 .8.3 1.2.2.9-.4-.6-1-2.5-1.4-2.5-.6zM194.8 449.7c.6.2 1.8.2 2.5 0 .6-.3.1-.5-1.3-.5-1.4 0-1.9.2-1.2.5zM202.9 449.6c.6.3.7 1.2.4 2-.3.8-.1 1.4.5 1.4 1.4 0 .8-3.3-.7-3.6-.6-.1-.7 0-.2.2zM211.2 450.9c.7.9 1.3 1.8 1.5 2 .1.2.1-.5 0-1.6 0-1.1-.7-2-1.4-2-1 0-1 .4-.1 1.6zM172.3 451.3c-.4.6-.1.7.7.2.7-.4 1.6-.2 2 .5.7 1.1 1.1 1 2.3-.2 1.3-1.3 1.2-1.5-1.4-1.5-1.7 0-3.3.5-3.6 1zM183.4 451.9c.3.5 0 1.1-.8 1.4-1.4.6-1.6 3-.3 4.3.3.4.4-.3.2-1.6-.3-1.8-.1-2.1 1.5-1.7 1.7.4 1.8.2.9-1.4-.5-1-1.2-1.9-1.5-1.9-.3 0-.3.4 0 .9zM186.6 451.8c-.2.4.4.8 1.4.8 1 0 1.6-.4 1.4-.8-.3-.4-.9-.8-1.4-.8-.5 0-1.1.4-1.4.8zM194.4 452.2c.9.5 2.3.5 3.2 0 1.2-.6.7-.9-1.6-.9s-2.8.3-1.6.9zM209 451.9c0 .6.4 1.3 1 1.6.6.3.7-.1.4-.9-.7-1.8-1.4-2.1-1.4-.7zM178.8 452.7c.7.3 1.6.2 1.9-.1.4-.3-.2-.6-1.3-.5-1.1 0-1.4.3-.6.6zM190.7 453.4c-.4 1-.1 1.3.8.9.8-.3 1.2-.9.9-1.4-.7-1.2-1.1-1.1-1.7.5zM215.3 453.5c0 .8.4 1.2.9.9.5-.3.6-1 .3-1.5-.9-1.3-1.2-1.1-1.2.6zM223 452.4c0 .2.8 1 1.8 1.7 1.5 1.3 1.6 1.2.3-.4s-2.1-2.1-2.1-1.3zM198.6 453.8c-.3.5.1.9.9.9s1.5-.4 1.5-.9c0-.4-.4-.8-.9-.8-.6 0-1.2.4-1.5.8zM176.6 455.7c-.6 1.4-.5 1.5.5.6.7-.7 1-1.5.7-1.8-.3-.3-.9.2-1.2 1.2zM186.9 455.7c-1.3 1.6-1.2 1.7.4.4.9-.7 1.7-1.5 1.7-1.7 0-.8-.8-.3-2.1 1.3zM192.6 455.5c-1.8 1.4-1.8 1.4.1 1.2 1.1 0 2-.7 2-1.4s-.1-1.3-.1-1.3c-.1 0-.9.7-2 1.5zM203 454.4c0 .2.8 1 1.8 1.7 1.5 1.3 1.6 1.2.3-.4s-2.1-2.1-2.1-1.3zM169.3 457.2c-.2 1.8 0 2 .7.8 1.2-1.8 1.3-3 .2-3-.4 0-.9 1-.9 2.2zM220.6 455.8c-.3.5.1.9.9.9s1.2-.4.9-.9c-.3-.4-.7-.8-.9-.8-.2 0-.6.4-.9.8zM171.6 457.9c-.3.4.2 1.6 1.2 2.4 1.6 1.5 1.8 1.5 1.8-.2 0-1.2-.5-1.7-1.5-1.3-.9.3-1.2.1-.7-.6.4-.7.5-1.2.2-1.2s-.7.4-1 .9zM211.4 457.8c.4.3 1.4.7 2.2.8.9.1 1.3 0 1-.4-.4-.3-1.4-.7-2.2-.8-.9-.1-1.3 0-1 .4zM177.3 459.3c0 .7.9 1.4 1.9 1.4 1 .1 1.8-.3 1.8-.9 0-.6-.3-.8-.7-.5-.3.4-1.1.2-1.8-.3-.8-.7-1.2-.6-1.2.3zM189.5 460c.2 2.7 1 3.3 1.2 1 .1-1.1-.2-2.2-.6-2.4-.4-.3-.7.4-.6 1.4zM193.5 462c-.3.5-.1 1 .4 1 .6 0 1.1-.5 1.1-1 0-.6-.2-1-.4-1-.3 0-.8.4-1.1 1zM201.6 461.8c-.3.5.1.9.9.9s1.2-.4.9-.9c-.3-.4-.7-.8-.9-.8-.2 0-.6.4-.9.8zM170.5 466c-.3.6.1.7.9.4 1.8-.7 2.1-1.4.7-1.4-.6 0-1.3.4-1.6 1zM177.5 466c.3.5.8 1 1.1 1 .2 0 .4-.5.4-1 0-.6-.5-1-1.1-1-.5 0-.7.4-.4 1zM180.5 466c-.3.6.1.7.9.4 1.8-.7 2.1-1.4.7-1.4-.6 0-1.3.4-1.6 1z"/></svg>