<?xml version="1.0" encoding="UTF-8"?><!DOCTYPE svg PUBLIC "-//W3C//DTD SVG 1.1//EN" "http://www.w3.org/Graphics/SVG/1.1/DTD/svg11.dtd"><svg xmlns="http://www.w3.org/2000/svg" xmlns:xlink="http://www.w3.org/1999/xlink"><defs><style>.cls-1{fill:#071143}</style><style>.cls-1{fill:#071143}</style><style>.cls-1{fill:#071143}</style><style>.cls-1{fill:#071143}</style><style>.cls-1{fill:#071143}</style><style>.cls-1{fill:#071143}</style><style>.cls-1{fill:#fff}</style><path d="M6.02 2.667L21.35 11.97 6 21.276l.02-18.61zm0-1.334a1.334 1.334 0 0 0-1.333 1.333l-.02 18.61a1.334 1.334 0 0 0 2.037 1.132l15.348-9.305a1.332 1.332 0 0 0 0-2.264L6.725 1.535a1.331 1.331 0 0 0-.704-.202z" id="a"/><style>.cls-1{fill:#fff}</style></defs><symbol id="apps" viewBox="0 0 36 36"><title>apps</title><path d="M32 34H22a2 2 0 0 1-2-2V22a2 2 0 0 1 2-2h10a2 2 0 0 1 2 2v10a2 2 0 0 1-2 2zm0-12H22v10h10V22zm0-6H22a2 2 0 0 1-2-2V4a2 2 0 0 1 2-2h10a2 2 0 0 1 2 2v10a2 2 0 0 1-2 2zm0-12H22v10h10V4zM14 34H4a2 2 0 0 1-2-2V22a2 2 0 0 1 2-2h10a2 2 0 0 1 2 2v10a2 2 0 0 1-2 2zm0-12H4v10h10V22zm0-6H4a2 2 0 0 1-2-2V4a2 2 0 0 1 2-2h10a2 2 0 0 1 2 2v10a2 2 0 0 1-2 2zm0-12H4v10h10V4z" fill="#1B1B1B" fill-rule="evenodd"/></symbol><symbol id="apps2" viewBox="0 0 36 36"><title>apps</title><path d="M32 34H22a2 2 0 0 1-2-2V22a2 2 0 0 1 2-2h10a2 2 0 0 1 2 2v10a2 2 0 0 1-2 2zm0-12H22v10h10V22zm0-6H22a2 2 0 0 1-2-2V4a2 2 0 0 1 2-2h10a2 2 0 0 1 2 2v10a2 2 0 0 1-2 2zm0-12H22v10h10V4zM14 34H4a2 2 0 0 1-2-2V22a2 2 0 0 1 2-2h10a2 2 0 0 1 2 2v10a2 2 0 0 1-2 2zm0-12H4v10h10V22zm0-6H4a2 2 0 0 1-2-2V4a2 2 0 0 1 2-2h10a2 2 0 0 1 2 2v10a2 2 0 0 1-2 2zm0-12H4v10h10V4z" fill="#1B1B1B" fill-rule="evenodd"/></symbol><symbol id="arrow-right" viewBox="0 0 36 36"><title>arrow</title><path d="M25.66 19.486H6v-2h19.66l-6.071-6.072L21.003 10l7.072 7.072 1.415 1.413-.001.001v.001l-1.413 1.414h-.001l-7.072 7.071-1.414-1.414 6.072-6.072z" fill-rule="nonzero" fill="#000"/></symbol><symbol id="beregn-pris" viewBox="0 0 20 28"><title>beregn-pris</title><path d="M18.5 0h-17A1.5 1.5 0 0 0 0 1.5v25A1.5 1.5 0 0 0 1.5 28h17a1.5 1.5 0 0 0 1.5-1.5v-25A1.5 1.5 0 0 0 18.5 0zm-17 1h17a.5.5 0 0 1 .5.5V6H1V1.5a.5.5 0 0 1 .5-.5zm17 26h-17a.5.5 0 0 1-.5-.5V7h18v19.5a.5.5 0 0 1-.5.5z"/><path d="M15.5 12h-3a.5.5 0 0 0 0 1h3a.5.5 0 0 0 0-1zM15.5 16h-3a.5.5 0 0 0 0 1h3a.5.5 0 0 0 0-1zM15.5 20h-3a.5.5 0 0 0 0 1h3a.5.5 0 0 0 0-1zM7.5 20h-3a.5.5 0 0 0 0 1h3a.5.5 0 0 0 0-1zM7.5 12h-3a.5.5 0 0 0 0 1h3a.5.5 0 0 0 0-1zM7.5 16h-3a.5.5 0 0 0 0 1h3a.5.5 0 0 0 0-1z"/></symbol><symbol id="bestil-tilbud" viewBox="0 0 32 32"><title>bestil-tilbud</title><path d="M26 1.5H6A1.5 1.5 0 0 0 4.5 3v26A1.5 1.5 0 0 0 6 30.5h20a1.5 1.5 0 0 0 1.5-1.5V3A1.5 1.5 0 0 0 26 1.5zm.5 27.5a.5.5 0 0 1-.5.5H6a.5.5 0 0 1-.5-.5V3a.5.5 0 0 1 .5-.5h20a.5.5 0 0 1 .5.5z"/><path d="M14.5 8.5h3a.5.5 0 0 0 0-1h-3a.5.5 0 0 0 0 1zM14.5 12.5h3a.5.5 0 0 0 0-1h-3a.5.5 0 0 0 0 1zM14.5 16.5h3a.5.5 0 0 0 0-1h-3a.5.5 0 0 0 0 1zM19.76 20.07a.5.5 0 0 0-.69.17l-2.69 4.48-2.3-2.09a.5.5 0 1 0-.67.74l2.75 2.5a.45.45 0 0 0 .45 0h.06l.09-.06v-.05l3-5a.5.5 0 0 0 0-.69z"/></symbol><symbol id="bestil-videomoede" viewBox="0 0 30.22 13.26"><title>video-meeting</title><path d="M22.26.82L18 3.16V.76a.5.5 0 0 0-.5-.5H.5a.5.5 0 0 0-.5.5v12a.5.5 0 0 0 .5.5h17a.5.5 0 0 0 .5-.5v-2.4l4.26 2.34a.5.5 0 0 0 .74-.44v-11a.5.5 0 0 0-.74-.44zM17 12.26H1v-11h16zm5-.85l-4-2.2v-4.9l4-2.2zM26.13 3.12a.5.5 0 0 0 .35-.12L28.6.85a.5.5 0 1 0-.7-.7l-2.12 2.12a.5.5 0 0 0 .35.85zM29.72 6H26.9a.5.5 0 0 0 0 1h2.83a.5.5 0 0 0 0-1zM26.48 10a.5.5 0 0 0-.71.71l2.12 2.12a.5.5 0 1 0 .71-.71z"/></symbol><symbol id="bliv-ringet-op" viewBox="0 0 26.5 26.5"><title>ring-mig-op</title><path d="M11.85 2.54A6.29 6.29 0 0 0 3 2.15L.4 4.74a1.36 1.36 0 0 0-.39 1 1.55 1.55 0 0 0 .46 1l4.27 4.27a1.47 1.47 0 0 0 2.07.06L8.1 9.85a1.26 1.26 0 0 1 1-.35 1.61 1.61 0 0 1 1.06.48l6.41 6.41a1.61 1.61 0 0 1 .43 1.06 1.25 1.25 0 0 1-.35 1l-1.3 1.29a1.47 1.47 0 0 0 .07 2.07L19.69 26a1.55 1.55 0 0 0 1 .46h.07a1.36 1.36 0 0 0 1-.4l2.59-2.59a6.29 6.29 0 0 0-.35-8.82zm11.79 20.27l-2.59 2.59a.47.47 0 0 1-.65-.07l-4.27-4.27a.47.47 0 0 1-.06-.65l1.29-1.29A2.23 2.23 0 0 0 18 17.4a2.61 2.61 0 0 0-.77-1.72l-6.41-6.41A2.61 2.61 0 0 0 9.1 8.5H9a2.22 2.22 0 0 0-1.59.65L6.1 10.44a.47.47 0 0 1-.65-.06L1.17 6.1a.47.47 0 0 1-.07-.65l2.59-2.59a5.3 5.3 0 0 1 7.45.39l12.12 12.1a5.3 5.3 0 0 1 .38 7.46zM17.5 4a.5.5 0 0 0 .5-.5v-3a.5.5 0 0 0-1 0v3a.5.5 0 0 0 .5.5zM21.5 5.5a.5.5 0 0 0 .35-.15l2-2a.5.5 0 0 0-.71-.71l-2 2a.5.5 0 0 0 .35.85zM26 8.5h-3a.5.5 0 0 0 0 1h3a.5.5 0 0 0 0-1z"/></symbol><symbol id="call-OLD" viewBox="0 0 36 36"><title>call</title><path d="M8.226 3.98c.034 0 .061.003.083.007.562.817 3.582 5.388 4.13 6.243.001.09-.029.318-.2.644-.184.348-.752 1.361-1.56 2.778l-.629 1.102.73 1.04c.543.772 1.837 2.451 4.394 5.008 2.567 2.568 4.241 3.858 5.01 4.4l1.04.73 1.102-.63a145.99 145.99 0 0 1 2.78-1.563c.336-.178.567-.192.63-.192l.025.001c.765.481 5.435 3.581 6.26 4.147.013.08 0 .254-.15.471-1.27 1.757-3.07 3.592-3.775 3.855-3.75-.176-9.015-3.473-14.84-9.299C7.43 16.895 4.136 11.637 3.961 7.9c.253-.707 2.088-2.52 3.83-3.779a.789.789 0 0 1 .435-.14zm0-1.938c-.529 0-1.09.16-1.578.5-.047.032-4.753 3.382-4.69 5.323.174 5.451 5.471 11.857 9.884 16.271 4.413 4.414 10.82 9.713 16.292 9.888h.045c1.916 0 5.284-4.647 5.316-4.693.884-1.262.561-2.652-.243-3.216-.489-.344-5.846-3.906-6.502-4.307a1.932 1.932 0 0 0-1.015-.26c-.489 0-1.03.142-1.56.42-.516.272-2.078 1.16-2.84 1.597-.674-.473-2.255-1.684-4.746-4.177-2.476-2.475-3.698-4.068-4.173-4.745.435-.764 1.323-2.325 1.593-2.839.511-.969.57-1.937.154-2.589-.39-.615-3.937-5.932-4.303-6.437-.344-.478-.963-.736-1.634-.736z" fill="#1B1B1B" fill-rule="evenodd"/></symbol><symbol id="call" viewBox="0 0 26 26"><title>ring-os</title><path d="M25.53 19.69l-4.27-4.27a1.47 1.47 0 0 0-2.07-.06l-1.29 1.29a1.26 1.26 0 0 1-1 .35 1.61 1.61 0 0 1-1.06-.48l-6.36-6.41A1.61 1.61 0 0 1 9 9.05a1.25 1.25 0 0 1 .35-1l1.3-1.29a1.47 1.47 0 0 0-.07-2.07L6.3.46a1.55 1.55 0 0 0-1-.46 1.35 1.35 0 0 0-1 .39L1.64 3A6.29 6.29 0 0 0 2 11.85L14.14 24a6.81 6.81 0 0 0 4.79 2A5.71 5.71 0 0 0 23 24.35l2.59-2.59a1.36 1.36 0 0 0 .39-1 1.55 1.55 0 0 0-.45-1.07zm-.64 1.36l-2.59 2.59a5.3 5.3 0 0 1-7.45-.39L2.74 11.15a5.3 5.3 0 0 1-.39-7.45l2.59-2.6a.37.37 0 0 1 .27-.1.55.55 0 0 1 .39.17l4.27 4.27a.47.47 0 0 1 .06.65l-1.29 1.3A2.23 2.23 0 0 0 8 9.1a2.61 2.61 0 0 0 .77 1.72l6.41 6.41a2.61 2.61 0 0 0 1.72.77 2.27 2.27 0 0 0 1.71-.64l1.29-1.29a.47.47 0 0 1 .65.06l4.27 4.27a.47.47 0 0 1 .07.65zM15 6a.5.5 0 0 0 .5-.5v-3a.5.5 0 0 0-1 0v3a.5.5 0 0 0 .5.5zM19 7.5a.5.5 0 0 0 .35-.15l2-2a.5.5 0 0 0-.71-.71l-2 2a.5.5 0 0 0 .36.86zM20 11a.5.5 0 0 0 .5.5h3a.5.5 0 0 0 0-1h-3a.5.5 0 0 0-.5.5z"/></symbol><symbol id="callcenter" viewBox="0 0 36 36"><title>callcenter</title><path d="M33.99 27.353a2.652 2.652 0 0 1-1.535 2.399.994.994 0 0 1-.339.238l-10.298 4.043-1.805.007-.012.002h-3a1 1 0 0 1-1-1v-1a1 1 0 0 1 1-1h3a1 1 0 0 1 1 1v.163l6.42-2.52a2.65 2.65 0 0 1-1.409-2.332v-6.676a2.658 2.658 0 0 1 2.656-2.656h2.665c.207 0 .407.029.6.074a37.444 37.444 0 0 0-.111-1.81C31.027 9.167 25.251 4 18.086 4 10.624 4 4.563 9.768 4.151 17.417l-.032.658c.174-.035.353-.054.537-.054h2.697a2.66 2.66 0 0 1 2.657 2.656v6.708a2.66 2.66 0 0 1-2.657 2.656H4.656A2.658 2.658 0 0 1 2 27.385v-6.708c0-.198.025-.388.066-.573l.002-.448c.005-.804.076-2.156.085-2.346C2.623 8.582 9.544 2 18.086 2 26.287 2 32.9 7.914 33.811 16.062c.079.71.182 3.193.179 3.851 0 .089-.029.17-.052.252.033.166.052.336.052.512v6.676zM4 27.385c0 .362.294.656.656.656h2.697a.657.657 0 0 0 .657-.656v-6.708a.657.657 0 0 0-.657-.656H4.656a.656.656 0 0 0-.656.656v6.708zm27.99-6.708a.657.657 0 0 0-.657-.656h-2.665a.656.656 0 0 0-.656.656v6.676c0 .363.294.657.656.657h2.665a.657.657 0 0 0 .657-.657v-6.676z" fill="#1B1B1B" fill-rule="evenodd"/></symbol><symbol id="car" viewBox="0 0 36 36"><title>car</title><path d="M5 27.005C5 27 32 27 32 27v-8.005C32 19 5 19 5 19v8.005zm-2-8.01A1.99 1.99 0 0 1 4.996 17h27.008c1.1 0 1.996.901 1.996 1.995v8.01A1.99 1.99 0 0 1 32.004 29H4.996C3.896 29 3 28.099 3 27.005v-8.01zM10.999 7H26c.163 0 .44.149.576.297L30.034 17h1.932L28.431 6.49l-.064-.114C27.917 5.588 26.91 5 26 5H11c-.911 0-1.913.584-2.366 1.376l-.064.113L5.034 17h1.932l3.457-9.704c.136-.15.41-.296.576-.296zM8 29v1.981c0 .01-.99.01-.99.01C7 30.99 7 29 7 29H5v1.981c0 1.117.898 2.01 2.01 2.01h.98c1.117 0 2.01-.898 2.01-2.01V29H8zm22 0v1.981c0 .01-.99.01-.99.01C29 30.99 29 29 29 29h-2v1.981c0 1.117.898 2.01 2.01 2.01h.98c1.117 0 2.01-.898 2.01-2.01V29h-2zM9 25a2 2 0 1 1 0-4 2 2 0 0 1 0 4zm19 0a2 2 0 1 1 0-4 2 2 0 0 1 0 4z" fill-rule="nonzero" fill="#000"/></symbol><symbol id="chat" viewBox="0 0 27 23"><title>chat</title><path d="M21.15 0H5.85A5.77 5.77 0 0 0 0 5.67v16.64a.69.69 0 0 0 .39.62.71.71 0 0 0 .31.07.7.7 0 0 0 .44-.16l5.54-4.46h14.47A5.77 5.77 0 0 0 27 12.72v-7A5.77 5.77 0 0 0 21.15 0zM26 12.72a4.77 4.77 0 0 1-4.85 4.67H6.57a.72.72 0 0 0-.44.16L1 21.67v-16A4.77 4.77 0 0 1 5.85 1h15.3A4.77 4.77 0 0 1 26 5.67z"/><path d="M15 4.5h-3a.5.5 0 0 0 0 1h3a.5.5 0 0 0 0-1zM15 8.5h-3a.5.5 0 0 0 0 1h3a.5.5 0 0 0 0-1zM15 12.5h-3a.5.5 0 0 0 0 1h3a.5.5 0 0 0 0-1z"/></symbol><symbol id="check" viewBox="0 0 36 36"><title>check</title><path d="M18 34C9.164 34 2 26.837 2 18 2 9.164 9.164 2 18 2c8.837 0 16 7.164 16 16 0 8.837-7.163 16-16 16zm0-30C10.28 4 4 10.28 4 18s6.28 14.031 14 14.031S32 25.72 32 18c0-7.72-6.28-14-14-14zm-2.229 19.651c-.02.024-.028.054-.051.077a.999.999 0 0 1-1.414 0l-4.95-4.949a1 1 0 1 1 1.414-1.415l4.228 4.228 9.388-9.446A.999.999 0 1 1 25.8 13.56L15.771 23.651z" fill="#1B1B1B" fill-rule="evenodd"/></symbol><symbol id="checkmark-nofill" viewBox="0 0 36 36"><path d="M26.42 11l1.413 1.414-12.437 12.437L8 17.454l1.334-1.334 5.982 5.983z" fill-rule="evenodd"/></symbol><symbol id="checkmark" viewBox="0 0 36 36"><title>checkmark</title><path d="M26.42 11l1.413 1.414-12.437 12.437L8 17.454l1.334-1.334 5.982 5.983z" fill-rule="nonzero" fill="#000"/></symbol><symbol id="chevron-down-nofill" viewBox="0 0 36 36"><path d="M9.162 12.25l-1.411 1.416 9.93 9.891 9.876-9.893-1.415-1.413-8.465 8.48z" fill-rule="nonzero"/></symbol><symbol id="chevron-down" viewBox="0 0 36 36"><title>arrow_down</title><path d="M9.162 12.25l-1.411 1.416 9.93 9.891 9.876-9.893-1.415-1.413-8.465 8.48z" fill-rule="nonzero" fill="#262626"/></symbol><symbol id="chevron-left-nofill" viewBox="0 0 36 36"><path d="M23.308 9.41L21.89 8 12 17.93l9.893 9.876 1.413-1.415-8.48-8.463"/></symbol><symbol id="chevron-left" viewBox="0 0 36 36"><title>arrow_right</title><path d="M23.308 9.411L21.89 8 12 17.93l9.893 9.876 1.413-1.415-8.48-8.464z" fill-rule="nonzero" fill="#262626"/></symbol><symbol id="chevron-right-backup" viewBox="0 0 36 36"><title>arrow_left</title><path d="M12 25.395l1.417 1.411 9.89-9.93L13.416 7l-1.413 1.415 8.479 8.465z" fill-rule="nonzero" fill="#979797"/></symbol><symbol id="chevron-right-nofill-backup" viewBox="0 0 36 36"><path d="M12 25.395l1.417 1.411 9.89-9.93L13.416 7l-1.413 1.415 8.479 8.465z" fill-rule="nonzero" fill="#979797"/></symbol><symbol id="chevron-right-nofill" viewBox="0 0 36 36"><path d="M12 26.395l1.417 1.41 9.89-9.93L13.416 8l-1.413 1.415 8.48 8.465"/></symbol><symbol id="chevron-right" viewBox="0 0 36 36"><title>arrow_left</title><path d="M12 26.395l1.417 1.411 9.89-9.93L13.416 8l-1.413 1.415 8.479 8.465z" fill-rule="nonzero" fill="#262626"/></symbol><symbol id="chevron-up-nofill" viewBox="0 0 36 36"><title>arrow_up</title><path d="M26.146 23.557l1.411-1.417-9.93-9.89-9.876 9.892 1.415 1.413 8.464-8.479z" fill-rule="nonzero" fill="#262626"/></symbol><symbol id="chevron-up" viewBox="0 0 36 36"><title>arrow_up</title><path d="M26.146 23.557l1.411-1.417-9.93-9.89-9.876 9.892 1.415 1.413 8.464-8.479z" fill-rule="nonzero" fill="#262626"/></symbol><symbol id="close-nofill" viewBox="0 0 36 36"><path d="M23.91 25.294l-6.116-6.115-6.115 6.115-1.385-1.385 6.115-6.115-6.115-6.115 1.385-1.385 6.115 6.115 6.115-6.115 1.385 1.385-6.115 6.115 6.115 6.115z" fill-rule="evenodd"/></symbol><symbol id="close-white" viewBox="0 0 36 36"><title>close</title><path d="M23.91 25.294l-6.116-6.115-6.115 6.115-1.385-1.385 6.115-6.115-6.115-6.115 1.385-1.385 6.115 6.115 6.115-6.115 1.385 1.385-6.115 6.115 6.115 6.115z" fill="#fff" fill-rule="evenodd"/></symbol><symbol id="close" viewBox="0 0 36 36"><path d="M23.91 25.294l-6.116-6.115-6.115 6.115-1.385-1.385 6.115-6.115-6.115-6.115 1.385-1.385 6.115 6.115 6.115-6.115 1.385 1.385-6.115 6.115 6.115 6.115z" fill="#262626" fill-rule="evenodd"/></symbol><symbol id="drop-filled" viewBox="0 0 36 36"><title>drop_filled</title><path d="M17.967 4.701C15.642 8.002 9 17.89 9 23.114c0 4.855 4.018 8.805 8.956 8.805 4.993 0 9.056-3.95 9.056-8.805 0-5.418-6.693-15.157-9.045-18.413z" fill="#1B1B1B" fill-rule="evenodd"/></symbol><symbol id="drop" viewBox="0 0 36 36"><title>drop</title><path d="M17.956 33.919C11.915 33.919 7 29.072 7 23.114c0-6.959 9.738-20.152 10.153-20.71.188-.252.482-.402.796-.404a.954.954 0 0 1 .802.393c.419.548 10.261 13.507 10.261 20.721 0 5.958-4.96 10.805-11.056 10.805zm.011-29.218C15.642 8.002 9 17.89 9 23.114c0 4.855 4.018 8.805 8.956 8.805 4.993 0 9.056-3.95 9.056-8.805 0-5.418-6.693-15.157-9.045-18.413z" fill="#1B1B1B" fill-rule="evenodd"/></symbol><symbol id="electronic" viewBox="0 0 36 36"><title>electronic</title><path d="M32 26.006H19v3.006h5a1 1 0 0 1 0 2H12a1 1 0 0 1 0-2h5v-3.006H4c-1.1 0-2-.901-2-2V7c0-1.1.9-2 2-2h28c1.1 0 2 .9 2 2v17.006c0 1.099-.9 2-2 2zM32 7H4v17.006h28V7z" fill="#1B1B1B" fill-rule="evenodd"/></symbol><symbol id="glasses" viewBox="0 0 36 36"><title>glasses</title><path d="M34.047 22.679c.006.114.017.226.017.341a6.98 6.98 0 0 1-6.98 6.979c-3.854 0-7.083-3.125-7.083-6.979 0-.594.085-1.168.229-1.718a6.627 6.627 0 0 0-2.197-.355c-1.06 0-1.777.227-2.18.393.134.539.212 1.1.212 1.68a6.98 6.98 0 0 1-6.98 6.979c-3.854 0-7.083-3.125-7.083-6.979 0-.17.014-.335.026-.502-.01-.071-.032-.138-.027-.212.03-.433 1.557-9.916 1.81-11.444.026-.147.045-.303.067-.467C4.074 8.859 4.44 6 9.048 6a1 1 0 1 1 0 2c-2.847 0-2.997 1.169-3.187 2.65a14.68 14.68 0 0 1-.076.54c-.12.718-.667 3.594-1.131 6.407a7.114 7.114 0 0 1 4.432-1.557 6.97 6.97 0 0 1 6.009 3.442c.61-.249 1.596-.535 2.938-.535 1.36 0 2.38.284 2.98.511 1.25-2.044 3.52-3.418 6.072-3.418a6.94 6.94 0 0 1 4.222 1.431c-.458-2.777-.987-5.577-1.104-6.281a14.68 14.68 0 0 1-.076-.54c-.19-1.481-.34-2.65-3.188-2.65a1 1 0 1 1 0-2c4.608 0 4.975 2.859 5.17 4.395.023.164.042.32.067.467.255 1.528 1.88 11.074 1.91 11.506a.974.974 0 0 1-.04.311zM9.086 18.04c-2.756 0-5.084 2.281-5.084 4.98 0 2.699 2.328 4.979 5.084 4.979a4.984 4.984 0 0 0 4.979-4.979 4.985 4.985 0 0 0-4.98-4.98zm22.937 4.566c-.007-.033-.027-.061-.03-.095a18.42 18.42 0 0 0-.05-.554 4.982 4.982 0 0 0-4.858-3.917c-2.756 0-5.084 2.281-5.084 4.98 0 2.699 2.328 4.979 5.084 4.979a4.984 4.984 0 0 0 4.979-4.979c0-.142-.03-.275-.041-.414z" fill="#1B1B1B" fill-rule="evenodd"/></symbol><symbol id="heart-filled" viewBox="0 0 36 36"><title>heart_filled</title><path d="M10.982 4.01c-2.387 0-4.491.718-6.244 2.479-3.65 3.663-3.65 9.604 0 13.27C5.781 20.806 15.9 32.13 15.9 32.13c.577.58 1.333.869 2.089.869.755 0 1.51-.29 2.086-.87 0 0 11.069-12.016 11.187-12.137 3.65-3.666 3.65-9.607 0-13.27C29.45 4.903 27.424 4 24.956 4c-2.36 0-4.99 1.893-6.956 3.9-2.027-2.007-4.577-3.89-7.018-3.89z" fill="#1B1B1B" fill-rule="evenodd"/></symbol><symbol id="heart" viewBox="0 0 36 36"><title>heart</title><path d="M10.982 6.018c.979 0 2.748.47 5.618 3.313l1.422 1.409 1.401-1.432c1.992-2.035 4.112-3.3 5.533-3.3 1.915 0 3.424.659 4.896 2.136a7.335 7.335 0 0 1 2.151 5.212 7.344 7.344 0 0 1-2.165 5.229c-.113.117-6.143 6.66-11.195 12.145a.952.952 0 0 1-1.303.008C16.11 29.361 7.187 19.38 6.15 18.338a7.344 7.344 0 0 1-2.153-5.216A7.338 7.338 0 0 1 6.15 7.91C7.5 6.552 9.08 6.018 10.982 6.018zm0-2.008c-2.387 0-4.491.718-6.244 2.479-3.65 3.663-3.65 9.604 0 13.27C5.781 20.806 15.9 32.13 15.9 32.13c.577.58 1.333.869 2.089.869.755 0 1.51-.29 2.086-.87 0 0 11.069-12.016 11.187-12.137 3.65-3.666 3.65-9.607 0-13.27C29.45 4.903 27.424 4 24.956 4c-2.36 0-4.99 1.893-6.956 3.9-2.027-2.007-4.577-3.89-7.018-3.89z" fill="#1B1B1B" fill-rule="evenodd"/></symbol><symbol id="house" viewBox="0 0 36 36"><title>house</title><path d="M33.793 19.446a1 1 0 0 1-1.414-.029l-1.344-1.407v14.968a1 1 0 0 1-1 1h-6.983a1 1 0 0 1-1-1v-9.986h-7.968l-.032 9.989a1 1 0 0 1-1 .997H6.066a1 1 0 0 1-1-1V18.016l-1.344 1.4a1 1 0 1 1-1.444-1.384l15.09-15.724a.999.999 0 0 1 1.443 0l15.011 15.724a1 1 0 0 1-.029 1.414zM18.09 4.445L7.021 15.979c.017.074.045.144.045.223v15.776h4.99l.031-9.989a1 1 0 0 1 1-.997h9.965a1 1 0 0 1 1 1v9.986h4.983V16.202c0-.084.03-.159.048-.238L18.09 4.445z" fill="#1B1B1B" fill-rule="evenodd"/></symbol><symbol id="key" viewBox="0 0 36 36"><title>key</title><path d="M22.982 20.03a8.943 8.943 0 0 1-5.918-2.235.989.989 0 0 1-.282.765l-5.387 5.42 4.245 4.327a1 1 0 0 1-1.415 1.414l-4.24-4.322-2.578 2.594 4.233 4.314a1 1 0 0 1-1.415 1.414l-4.902-4.997c-.005-.004-.006-.009-.01-.013-.005-.006-.013-.008-.02-.014a1 1 0 0 1 0-1.414l10.075-10.138a.99.99 0 0 1 .774-.279 8.978 8.978 0 0 1-2.16-5.851c0-4.979 4.029-9.015 9-9.015 4.97 0 9 4.036 9 9.015 0 4.979-4.03 9.015-9 9.015zm0-16.03c-3.851 0-7 3.133-7 7s3.149 7 7 7c3.85 0 7-3.133 7-7s-3.15-7-7-7z" fill="#1B1B1B" fill-rule="evenodd"/></symbol><symbol id="lifering" viewBox="0 0 36 36"><title>lifering</title><path d="M29.572 27.369c-.189.23-.47.506-.62.673a13.547 13.547 0 0 1-3.943 2.972c-.38.191-.77.365-1.164.52a15.183 15.183 0 0 0 4.267-3.542c-.582-.161-1.21-.555-1.846-1.07-1.041-.84-1.773-1.742-1.642-2.595.173-.18.339-.365.497-.56 3.022-3.73 2.62-9.13-.793-12.386.846.116 1.734-.615 2.568-1.646.801-.987 1.327-1.968 1.114-2.757 5.802 5.261 6.553 14.23 1.562 20.39zM18.006 9.862c1.857 0 3.676.645 5.12 1.815 3.488 2.824 4.028 7.96 1.2 11.445a8.111 8.111 0 0 1-6.329 3.016 8.154 8.154 0 0 1-5.122-1.816 8.072 8.072 0 0 1-2.972-5.474 8.073 8.073 0 0 1 1.772-5.97 8.112 8.112 0 0 1 6.331-3.016zM6.43 8.631c.202-.25.411-.486.625-.72.768-.135 1.703.372 2.64 1.135.742.597 1.322 1.228 1.55 1.85a8.944 8.944 0 0 1 4.334-1.862 10.162 10.162 0 0 0-4.34 2.794c-.106.113-.211.23-.313.353-.038.047-.075.096-.11.141a9.072 9.072 0 0 0-1.93 6.634 9.08 9.08 0 0 0 2.865 5.733c-.896-.245-1.85.51-2.742 1.612-.748.921-1.252 1.842-1.14 2.601-5.689-5.275-6.394-14.157-1.44-20.271zm-.866-.702c-5.556 6.855-4.497 16.949 2.36 22.502a16.046 16.046 0 0 0 10.068 3.57c4.857 0 9.393-2.161 12.445-5.93 5.556-6.854 4.5-16.95-2.358-22.503A16.046 16.046 0 0 0 18.008 2c-4.855 0-9.39 2.16-12.445 5.929z" fill="#1B1B1B" fill-rule="evenodd"/></symbol><symbol id="login-nofill-OLD" viewBox="0 0 36 36"><path d="M27 34H9c-2.206 0-4-1.794-4-4V18c0-2.206 1.794-4 4-4h1v-3.816C10 5.671 13.227 2 17.963 2 22.68 2 26 5.595 26 10.184V14h1c2.206 0 4 1.794 4 4v12c0 2.206-1.794 4-4 4zm-3-23.816C24 6.716 21.559 4 17.963 4 14.33 4 12 6.774 12 10.184V14h12v-3.816zM29 18c0-1.103-.898-2-2-2H9c-1.103 0-2 .897-2 2v12c0 1.102.897 2 2 2h18c1.102 0 2-.898 2-2V18zm-10 5.723V27a1 1 0 0 1-2 0v-3.277A1.994 1.994 0 0 1 18 20a1.994 1.994 0 1 1 1 3.723z"/></symbol><symbol id="login-nofill" viewBox="0 0 17 24"><title>log-ind</title><path d="M15 10V6a6 6 0 0 0-6-6H8a6 6 0 0 0-6 6v4a2.5 2.5 0 0 0-2 2.5v9A2.5 2.5 0 0 0 2.5 24h12a2.5 2.5 0 0 0 2.5-2.5v-9a2.5 2.5 0 0 0-2-2.5zM3 6a5 5 0 0 1 5-5h1a5 5 0 0 1 5 5v4H3zm13 15.5a1.5 1.5 0 0 1-1.5 1.5h-12A1.5 1.5 0 0 1 1 21.5v-9A1.5 1.5 0 0 1 2.5 11h12a1.5 1.5 0 0 1 1.5 1.5z"/><path d="M4.26 15.09a.5.5 0 0 0-.5.5v2.83a.5.5 0 0 0 1 0v-2.83a.5.5 0 0 0-.5-.5zM8.5 15.09a.5.5 0 0 0-.5.5v2.83a.5.5 0 0 0 1 0v-2.83a.5.5 0 0 0-.5-.5zM12.74 15.09a.5.5 0 0 0-.5.5v2.83a.5.5 0 0 0 1 0v-2.83a.5.5 0 0 0-.5-.5z"/></symbol><symbol id="login" viewBox="0 0 17 24"><title>log-ind</title><path d="M15 10V6a6 6 0 0 0-6-6H8a6 6 0 0 0-6 6v4a2.5 2.5 0 0 0-2 2.5v9A2.5 2.5 0 0 0 2.5 24h12a2.5 2.5 0 0 0 2.5-2.5v-9a2.5 2.5 0 0 0-2-2.5zM3 6a5 5 0 0 1 5-5h1a5 5 0 0 1 5 5v4H3zm13 15.5a1.5 1.5 0 0 1-1.5 1.5h-12A1.5 1.5 0 0 1 1 21.5v-9A1.5 1.5 0 0 1 2.5 11h12a1.5 1.5 0 0 1 1.5 1.5z"/><path d="M4.26 15.09a.5.5 0 0 0-.5.5v2.83a.5.5 0 0 0 1 0v-2.83a.5.5 0 0 0-.5-.5zM8.5 15.09a.5.5 0 0 0-.5.5v2.83a.5.5 0 0 0 1 0v-2.83a.5.5 0 0 0-.5-.5zM12.74 15.09a.5.5 0 0 0-.5.5v2.83a.5.5 0 0 0 1 0v-2.83a.5.5 0 0 0-.5-.5z"/></symbol><symbol id="logout-nofill---deprecated" viewBox="0 0 36 36"><path d="M27 34.07H9c-2.206 0-4-1.795-4-4v-12c0-2.207 1.794-4 4-4h1.673l-.402-1.804c-1.168-4.359.999-8.74 5.573-9.966 4.556-1.22 8.694 1.392 9.882 5.825l.425 1.686a1 1 0 1 1-1.932.518l-.425-1.687c-.898-3.349-3.959-5.34-7.432-4.41-3.509.94-5.042 4.223-4.159 7.516l.517 2.321H27c2.206 0 4 1.794 4 4v12c0 2.206-1.794 4-4 4zm2-16c0-1.104-.898-2-2-2H9c-1.103 0-2 .896-2 2v12c0 1.101.897 2 2 2h18c1.102 0 2-.899 2-2v-12zm-10 5.722v3.277a1 1 0 0 1-2 0v-3.277a1.994 1.994 0 0 1 1-3.723 1.994 1.994 0 1 1 1 3.723z" fill-rule="evenodd"/></symbol><symbol id="logout-nofill-OLD---deprecated" viewBox="0 0 36 36"><path d="M27 34.07H9c-2.206 0-4-1.795-4-4v-12c0-2.207 1.794-4 4-4h1.673l-.402-1.804c-1.168-4.359.999-8.74 5.573-9.966 4.556-1.22 8.694 1.392 9.882 5.825l.425 1.686a1 1 0 1 1-1.932.518l-.425-1.687c-.898-3.349-3.959-5.34-7.432-4.41-3.509.94-5.042 4.223-4.159 7.516l.517 2.321H27c2.206 0 4 1.794 4 4v12c0 2.206-1.794 4-4 4zm2-16c0-1.104-.898-2-2-2H9c-1.103 0-2 .896-2 2v12c0 1.101.897 2 2 2h18c1.102 0 2-.899 2-2v-12zm-10 5.722v3.277a1 1 0 0 1-2 0v-3.277a1.994 1.994 0 0 1 1-3.723 1.994 1.994 0 1 1 1 3.723z"/></symbol><symbol id="logud" viewBox="0 0 17 24"><title>log-ud</title><path d="M15 10V6a6 6 0 0 0-6-6H8a6 6 0 0 0-6 6 .5.5 0 0 0 1 0 5 5 0 0 1 5-5h1a5 5 0 0 1 5 5v4H2.5A2.5 2.5 0 0 0 0 12.5v9A2.5 2.5 0 0 0 2.5 24h12a2.5 2.5 0 0 0 2.5-2.5v-9a2.5 2.5 0 0 0-2-2.5zm1 11.5a1.5 1.5 0 0 1-1.5 1.5h-12A1.5 1.5 0 0 1 1 21.5v-9A1.5 1.5 0 0 1 2.5 11h12a1.5 1.5 0 0 1 1.5 1.5z"/><path d="M4.26 15.09a.5.5 0 0 0-.5.5v2.83a.5.5 0 0 0 1 0v-2.83a.5.5 0 0 0-.5-.5zM8.5 15.09a.5.5 0 0 0-.5.5v2.83a.5.5 0 0 0 1 0v-2.83a.5.5 0 0 0-.5-.5zM12.74 15.09a.5.5 0 0 0-.5.5v2.83a.5.5 0 0 0 1 0v-2.83a.5.5 0 0 0-.5-.5z"/></symbol><symbol id="mail" viewBox="0 0 36 36"><title>mail</title><path d="M34 25.5c0 1.657-.843 3.5-2.5 3.5h-26C3.843 29 2 27.157 2 25.5v-16c0-.08.024-.15.032-.226a.982.982 0 0 1 .212-.835c.037-.043.086-.064.129-.099C2.992 7.454 4.291 7 5.5 7h26c1.369 0 2.173.585 2.414 1.719.067.164.09.334.067.506.006.092.019.177.019.275v16zM5.5 27h26c.552 0 .5-.948.5-1.5V11.174L18.655 21.85a.998.998 0 0 1-1.31 0L4 11.173V25.5c0 .552.949 1.5 1.5 1.5zM31 9H5.5c-.276 0-.652-.012-.959.044L18 19.771 31.514 9H31z" fill="#1B1B1B" fill-rule="evenodd"/></symbol><symbol id="megafon" viewBox="0 0 29.5 24.99"><title>terror01</title><path d="M21.85 0l-14 4.5a.5.5 0 0 0-.35.5v1H4a.5.5 0 0 0-.5.5V7a3.5 3.5 0 1 0 0 7v.5a.5.5 0 0 0 .5.5h1.12l-3 7.38a1.79 1.79 0 0 0 0 1.44 2 2 0 0 0 1.22 1.06 2.23 2.23 0 0 0 .69.11 2.11 2.11 0 0 0 2-1.25l2.8-6.94 13 4.18.17.02a.5.5 0 0 0 .5-.5V.5a.5.5 0 0 0-.21-.4.49.49 0 0 0-.44-.1zM1 10.5A2.5 2.5 0 0 1 3.5 8v5A2.5 2.5 0 0 1 1 10.5zM4.5 7h3v7h-3zm.62 16.36a1.16 1.16 0 0 1-1.42.57 1 1 0 0 1-.62-.53.8.8 0 0 1 0-.64L6.19 15H7.5v1a.5.5 0 0 0 .35.48h.05zm16.38-3.55l-13-4.18V5.36l13-4.18zm3.78-13.1a.5.5 0 0 1 0-.71l2.12-2.11a.5.5 0 1 1 .71.71L26 6.72a.5.5 0 0 1-.71 0zM29.5 11a.5.5 0 0 1-.5.5h-3a.5.5 0 0 1 0-1h3a.5.5 0 0 1 .5.5zm-1.4 5.91a.5.5 0 1 1-.71.71l-2.12-2.12a.5.5 0 0 1 .71-.71z"/></symbol><symbol id="menu" viewBox="0 0 36 36"><title>menu</title><path d="M3 11V9h30v2H3zm0 8v-2h30v2H3zm0 8v-2h30v2H3z" fill-rule="nonzero" fill="#000"/></symbol><symbol id="pdf" viewBox="0 0 128 128"><path d="M95.21 80.32c-.07-.51-.48-1.15-.92-1.58-1.26-1.24-4.03-1.89-8.25-1.95-2.86-.03-6.3.22-9.92.73-1.62-.93-3.29-1.95-4.6-3.18-3.53-3.29-6.47-7.86-8.31-12.89.12-.47.22-.88.32-1.3 0 0 1.98-11.28 1.46-15.1-.07-.52-.12-.67-.26-1.08l-.17-.44c-.54-1.25-1.6-2.57-3.26-2.5l-.98-.03h-.02c-1.86 0-3.36.95-3.76 2.36-1.2 4.44.04 11.09 2.29 19.69l-.58 1.4c-1.61 3.94-3.63 7.9-5.41 11.39l-.23.45c-1.88 3.67-3.58 6.79-5.13 9.43l-1.59.84c-.12.06-2.85 1.51-3.49 1.89-5.43 3.25-9.03 6.93-9.63 9.85-.19.94-.05 2.13.92 2.68l1.54.78c.67.33 1.38.5 2.1.5 3.87 0 8.36-4.82 14.55-15.62 7.14-2.32 15.28-4.26 22.41-5.32 5.43 3.05 12.11 5.18 16.33 5.18.75 0 1.4-.07 1.92-.21.81-.22 1.49-.68 1.91-1.3.82-1.23.98-2.93.76-4.67zM36.49 99.33c.7-1.93 3.5-5.75 7.63-9.13.26-.21.9-.81 1.48-1.37-4.32 6.89-7.21 9.63-9.11 10.5zM60.95 43c1.24 0 1.95 3.13 2.01 6.07.06 2.94-.63 5-1.48 6.53-.71-2.26-1.05-5.82-1.05-8.15 0 0-.05-4.45.52-4.45zm-7.3 40.14c.87-1.55 1.77-3.19 2.69-4.92 2.25-4.25 3.67-7.57 4.72-10.3 2.1 3.82 4.72 7.07 7.79 9.67.39.32.8.65 1.22.98-6.25 1.23-11.66 2.74-16.42 4.57zm39.43-.35c-.38.23-1.47.37-2.17.37-2.26 0-5.07-1.03-9-2.72 1.51-.11 2.9-.17 4.14-.17 2.27 0 2.94-.01 5.17.56 2.22.57 2.25 1.72 1.86 1.96z" fill="#ff402f"/><path d="M104 80c-13.255 0-24 10.745-24 24s10.745 24 24 24 24-10.745 24-24-10.745-24-24-24zm10.882 16.988l-.113.176-8.232 11.438c-.548.866-1.508 1.398-2.537 1.398s-1.989-.532-2.536-1.397l-8.346-11.614a3.01 3.01 0 0 1 .01-2.994 3.01 3.01 0 0 1 2.596-1.494H100V86c0-1.654 1.346-3 3-3h2c1.654 0 3 1.346 3 3v6.5h4.276c1.065 0 2.061.572 2.596 1.494a3.01 3.01 0 0 1 .01 2.994z" fill="#ff402f"/><path fill="#ff9a30" d="M84 125.95l-.05.05H84zM114 77v-.05l-.05.05z"/><path d="M111.071 44.243L71.757 4.929A9.936 9.936 0 0 0 64.687 2H24c-5.514 0-10 4.486-10 10v104c0 5.514 4.486 10 10 10h59.95l-4-4H24c-3.309 0-6-2.691-6-6V12c0-3.309 2.691-6 6-6h40.687c1.603 0 3.109.624 4.242 1.757l39.314 39.314A6.044 6.044 0 0 1 110 51.313V72.95l4 4V51.313c0-2.67-1.04-5.181-2.929-7.07z" fill="#ff402f"/><path fill="#fff" d="M113.95 77l.05-.05-4-4"/></symbol><symbol id="picture" viewBox="0 0 36 36"><title>picture</title><path d="M32 31.006H4c-1.1 0-2-.901-2-2V6c0-1.1.9-2 2-2h28c1.1 0 2 .9 2 2v23.006c0 1.099-.9 2-2 2zm0-2v-1.862c-.025-.021-.056-.03-.08-.053l-6.588-6.762-3.652 3.307c-.431.326-1.038.379-1.379-.035l-8.275-8.266L4 23.113v5.893h28zM4 6v14.321l7.309-7.112c.202-.19.473-.279.749-.27.276.018.532.149.709.363l8.279 8.19 3.767-3.282a1.001 1.001 0 0 1 1.311.086L32 24.31V6H4zm21 8.007a1.995 1.995 0 1 1 0-3.99 1.995 1.995 0 0 1 0 3.99z" fill="#1B1B1B" fill-rule="evenodd"/></symbol><symbol id="place" viewBox="0 0 36 36"><title>place</title><path d="M20 33.203c-.017.02-.713.797-1.575.797h-.076c-.863 0-1.563-.777-1.579-.797C12.439 28.222 6 21.135 6 14.205 6 7.587 11.556 2 18.115 2 25.667 2 30 7.587 30 14.205c0 6.621-5.935 14.325-10 18.998zM18.115 4C12.632 4 8 8.673 8 14.205c0 5.894 5.623 12.345 9.729 17.055l.524.601a.957.957 0 0 0 .133.107.998.998 0 0 0 .131-.107C24.81 24.62 28 18.68 28 14.205 28 9.125 24.944 4 18.115 4zm-.079 16.056a6 6 0 1 1 0-12 6 6 0 0 1 0 12zm-.046-10.044c-2.206 0-4 1.794-4 4s1.84 4.044 4.046 4.044c2.206 0 3.954-1.838 3.954-4.044 0-2.206-1.794-4-4-4z" fill="#1B1B1B" fill-rule="evenodd"/></symbol><symbol id="products" viewBox="0 0 36 36"><title>produts</title><path d="M8.857 9C8.937 9 9 8.936 9 8.857V3.143A.143.143 0 0 0 8.857 3H3.143A.143.143 0 0 0 3 3.143v5.714c0 .08.064.143.143.143h5.714zm0 1H3.143A1.143 1.143 0 0 1 2 8.857V3.143C2 2.51 2.511 2 3.143 2h5.714C9.49 2 10 2.511 10 3.143v5.714C10 9.49 9.489 10 8.857 10zm0 12H3.143A1.143 1.143 0 0 1 2 20.857v-5.714C2 14.51 2.511 14 3.143 14h5.714C9.49 14 10 14.511 10 15.143v5.714C10 21.49 9.489 22 8.857 22zm0-1c.08 0 .143-.064.143-.143v-5.714A.143.143 0 0 0 8.857 15H3.143a.143.143 0 0 0-.143.143v5.714c0 .08.064.143.143.143h5.714zm0 13H3.143A1.143 1.143 0 0 1 2 32.857v-5.714C2 26.51 2.511 26 3.143 26h5.714C9.49 26 10 26.511 10 27.143v5.714C10 33.49 9.489 34 8.857 34zm0-1c.08 0 .143-.064.143-.143v-5.714A.143.143 0 0 0 8.857 27H3.143a.143.143 0 0 0-.143.143v5.714c0 .08.064.143.143.143h5.714zm12-23h-5.714A1.143 1.143 0 0 1 14 8.857V3.143C14 2.51 14.511 2 15.143 2h5.714C21.49 2 22 2.511 22 3.143v5.714C22 9.49 21.489 10 20.857 10zm0-1c.08 0 .143-.064.143-.143V3.143A.143.143 0 0 0 20.857 3h-5.714a.143.143 0 0 0-.143.143v5.714c0 .08.064.143.143.143h5.714zm0 13h-5.714A1.143 1.143 0 0 1 14 20.857v-5.714c0-.632.511-1.143 1.143-1.143h5.714c.632 0 1.143.511 1.143 1.143v5.714C22 21.49 21.489 22 20.857 22zm0-1c.08 0 .143-.064.143-.143v-5.714a.143.143 0 0 0-.143-.143h-5.714a.143.143 0 0 0-.143.143v5.714c0 .08.064.143.143.143h5.714zm0 13h-5.714A1.143 1.143 0 0 1 14 32.857v-5.714c0-.632.511-1.143 1.143-1.143h5.714c.632 0 1.143.511 1.143 1.143v5.714C22 33.49 21.489 34 20.857 34zm0-1c.08 0 .143-.064.143-.143v-5.714a.143.143 0 0 0-.143-.143h-5.714a.143.143 0 0 0-.143.143v5.714c0 .08.064.143.143.143h5.714zm12-23h-5.714A1.143 1.143 0 0 1 26 8.857V3.143C26 2.51 26.511 2 27.143 2h5.714C33.49 2 34 2.511 34 3.143v5.714C34 9.49 33.489 10 32.857 10zm0-1c.08 0 .143-.064.143-.143V3.143A.143.143 0 0 0 32.857 3h-5.714a.143.143 0 0 0-.143.143v5.714c0 .08.064.143.143.143h5.714zm0 13h-5.714A1.143 1.143 0 0 1 26 20.857v-5.714c0-.632.511-1.143 1.143-1.143h5.714c.632 0 1.143.511 1.143 1.143v5.714C34 21.49 33.489 22 32.857 22zm0-1c.08 0 .143-.064.143-.143v-5.714a.143.143 0 0 0-.143-.143h-5.714a.143.143 0 0 0-.143.143v5.714c0 .08.064.143.143.143h5.714zm0 13h-5.714A1.143 1.143 0 0 1 26 32.857v-5.714c0-.632.511-1.143 1.143-1.143h5.714c.632 0 1.143.511 1.143 1.143v5.714C34 33.49 33.489 34 32.857 34zm0-1c.08 0 .143-.064.143-.143v-5.714a.143.143 0 0 0-.143-.143h-5.714a.143.143 0 0 0-.143.143v5.714c0 .08.064.143.143.143h5.714z" fill-rule="nonzero" fill="#000"/></symbol><symbol id="rain" viewBox="0 0 36 36"><title>rain</title><path d="M34.045 17.932a1 1 0 0 1-1 1H19.007v10.14a4.95 4.95 0 0 1-4.945 4.943 4.95 4.95 0 0 1-4.944-4.943 1 1 0 1 1 2 0 2.946 2.946 0 0 0 2.944 2.943 2.947 2.947 0 0 0 2.945-2.943v-10.14H3a1 1 0 0 1-1-1C2 10.198 7.658 5.294 17.007 4.969V3a1 1 0 0 1 2 0v1.969c9.352.325 15.038 5.229 15.038 12.963zm-2.038-1c-.493-6.271-5.595-9.98-14-9.98-8.405 0-13.476 3.709-13.968 9.98h27.968z" fill="#1B1B1B" fill-rule="evenodd"/></symbol><symbol id="ring-til-os" viewBox="0 0 26 26"><title>ring-os</title><path d="M25.53 19.69l-4.27-4.27a1.47 1.47 0 0 0-2.07-.06l-1.29 1.29a1.26 1.26 0 0 1-1 .35 1.61 1.61 0 0 1-1.06-.48l-6.36-6.41A1.61 1.61 0 0 1 9 9.05a1.25 1.25 0 0 1 .35-1l1.3-1.29a1.47 1.47 0 0 0-.07-2.07L6.3.46a1.55 1.55 0 0 0-1-.46 1.35 1.35 0 0 0-1 .39L1.64 3A6.29 6.29 0 0 0 2 11.85L14.14 24a6.81 6.81 0 0 0 4.79 2A5.71 5.71 0 0 0 23 24.35l2.59-2.59a1.36 1.36 0 0 0 .39-1 1.55 1.55 0 0 0-.45-1.07zm-.64 1.36l-2.59 2.59a5.3 5.3 0 0 1-7.45-.39L2.74 11.15a5.3 5.3 0 0 1-.39-7.45l2.59-2.6a.37.37 0 0 1 .27-.1.55.55 0 0 1 .39.17l4.27 4.27a.47.47 0 0 1 .06.65l-1.29 1.3A2.23 2.23 0 0 0 8 9.1a2.61 2.61 0 0 0 .77 1.72l6.41 6.41a2.61 2.61 0 0 0 1.72.77 2.27 2.27 0 0 0 1.71-.64l1.29-1.29a.47.47 0 0 1 .65.06l4.27 4.27a.47.47 0 0 1 .07.65zM15 6a.5.5 0 0 0 .5-.5v-3a.5.5 0 0 0-1 0v3a.5.5 0 0 0 .5.5zM19 7.5a.5.5 0 0 0 .35-.15l2-2a.5.5 0 0 0-.71-.71l-2 2a.5.5 0 0 0 .36.86zM20 11a.5.5 0 0 0 .5.5h3a.5.5 0 0 0 0-1h-3a.5.5 0 0 0-.5.5z"/></symbol><symbol id="search-nofill" viewBox="0 0 36 36"><path d="M32.399 33.697l-9.708-9.769A12.442 12.442 0 0 1 14.5 27C7.596 27 2 21.403 2 14.5 2 7.596 7.596 2 14.5 2S27 7.596 27 14.5a12.44 12.44 0 0 1-2.904 8.005l9.718 9.778-1.415 1.414zM25.017 14.5c0-5.808-4.709-10.517-10.517-10.517S3.983 8.692 3.983 14.5 8.692 25.017 14.5 25.017 25.017 20.308 25.017 14.5z"/></symbol><symbol id="search" viewBox="0 0 36 36"><title>search</title><path d="M32.399 33.697l-9.708-9.769A12.442 12.442 0 0 1 14.5 27C7.596 27 2 21.403 2 14.5 2 7.596 7.596 2 14.5 2S27 7.596 27 14.5a12.44 12.44 0 0 1-2.904 8.005l9.718 9.778-1.415 1.414zM25.017 14.5c0-5.808-4.709-10.517-10.517-10.517S3.983 8.692 3.983 14.5 8.692 25.017 14.5 25.017 25.017 20.308 25.017 14.5z" fill="#1B1B1B" fill-rule="evenodd"/></symbol><symbol id="skriv-til-os" viewBox="0 0 29 21"><title>skriv-til-os-02</title><path d="M26.5 0h-24A2.5 2.5 0 0 0 0 2.5v16A2.5 2.5 0 0 0 2.5 21h24a2.5 2.5 0 0 0 2.5-2.5v-16A2.5 2.5 0 0 0 26.5 0zm0 1a1.48 1.48 0 0 1 .51.1L23.9 4.21v-.07l-2-2a.5.5 0 0 0-.71.71l2 2h.07L20.9 7.21v-.07l-2-2a.5.5 0 0 0-.71.71l2 2h.07l-2.36 2.36v-.07l-2-2a.5.5 0 0 0-.71.71l2 2h.07l-1.78 1.78a1.32 1.32 0 0 1-1.87 0L2 1.1a1.48 1.48 0 0 1 .5-.1zM28 18.5a1.5 1.5 0 0 1-1.5 1.5h-24A1.5 1.5 0 0 1 1 18.5v-16a1.48 1.48 0 0 1 .21-.76l11.65 11.64a2.32 2.32 0 0 0 3.28 0L27.79 1.74a1.48 1.48 0 0 1 .21.76z"/></symbol><symbol id="skybrud" viewBox="0 0 30 25"><title>skybrud</title><path d="M24 9v-.53A8.5 8.5 0 0 0 7.13 7a6 6 0 0 0-.63 0 6.5 6.5 0 0 0 0 13h18A5.5 5.5 0 1 0 24 9zm.52 10H6.5a5.5 5.5 0 1 1 1-10.91.5.5 0 0 0 .35-.09.5.5 0 0 0 .2-.35A7.5 7.5 0 0 1 23 8.5a7.4 7.4 0 0 1-.08 1.06.5.5 0 0 0 .6.56 4.5 4.5 0 1 1 1 8.89zm-14.24 2.08a.5.5 0 0 1 .14.69l-2 3a.5.5 0 0 1-.83-.55l2-3a.5.5 0 0 1 .69-.14zm5 0a.5.5 0 0 1 .14.69l-2 3a.5.5 0 0 1-.83-.55l2-3a.5.5 0 0 1 .69-.14zm5 0a.5.5 0 0 1 .14.69l-2 3a.5.5 0 0 1-.83-.55l2-3a.5.5 0 0 1 .69-.14z"/></symbol><symbol id="sne" viewBox="0 0 30 30"><title>sne</title><path d="M6.78 26.09a.5.5 0 1 1-.69.13.5.5 0 0 1 .69-.13zM11.5 26a.5.5 0 1 0 .5.5.5.5 0 0 0-.5-.5zm5 0a.5.5 0 1 0 .5.5.5.5 0 0 0-.5-.5zM4.09 29.22a.5.5 0 1 0 .69-.13.5.5 0 0 0-.69.13zM9.5 29a.5.5 0 1 0 .5.5.5.5 0 0 0-.5-.5zm5 0a.5.5 0 1 0 .5.5.5.5 0 0 0-.5-.5zM30 14.5a5.51 5.51 0 0 1-5.5 5.5h-18a6.5 6.5 0 0 1 0-13 6 6 0 0 1 .63 0A8.5 8.5 0 0 1 24 8.5v.53a5.48 5.48 0 0 1 6 5.47zm-1 0a4.47 4.47 0 0 0-5.48-4.39.5.5 0 0 1-.6-.56A7.4 7.4 0 0 0 23 8.5a7.5 7.5 0 0 0-14.95-.85.5.5 0 0 1-.58.44A5.5 5.5 0 1 0 6.5 19h18a4.5 4.5 0 0 0 4.5-4.5zM9.58 21.22l-2 3a.5.5 0 1 0 .83.55l2-3a.5.5 0 0 0-.83-.55zm5 0l-2 3a.5.5 0 1 0 .83.55l2-3a.5.5 0 1 0-.83-.55zm5 0l-2 3a.5.5 0 1 0 .83.55l2-3a.5.5 0 1 0-.83-.55z"/></symbol><symbol id="socialemail" viewBox="0 0 36 36"><title>CPHicons-36x36</title><path class="cls-1" d="M30 16.62a11.08 11.08 0 0 1-.66 3.9 6.26 6.26 0 0 1-1.86 2.75 4.25 4.25 0 0 1-2.76 1 3.18 3.18 0 0 1-2.18-.78 3.13 3.13 0 0 1-1.05-2h-.12A4.58 4.58 0 0 1 17 24.24a4.32 4.32 0 0 1-3.52-1.54 6.38 6.38 0 0 1-1.27-4.18 7 7 0 0 1 1.77-5 6 6 0 0 1 4.65-1.91 16.37 16.37 0 0 1 2.31.19 14.67 14.67 0 0 1 2.33.52l-.37 7.08v.33q0 2.67 2 2.67a2.53 2.53 0 0 0 2.22-1.61 9 9 0 0 0 .86-4.2 9.8 9.8 0 0 0-1.11-4.76 7.66 7.66 0 0 0-3.17-3.14A9.76 9.76 0 0 0 19 7.58 11.72 11.72 0 0 0 13.17 9a9.23 9.23 0 0 0-3.78 4 13 13 0 0 0-1.31 6q0 4.58 2.42 7t7 2.46A18.35 18.35 0 0 0 24 27.1v2a16.18 16.18 0 0 1-6.54 1.26q-5.45 0-8.46-3T6 19a14.67 14.67 0 0 1 1.61-7 11.41 11.41 0 0 1 4.58-4.72A13.66 13.66 0 0 1 19 5.65 11.87 11.87 0 0 1 24.74 7a9.5 9.5 0 0 1 3.89 3.86A11.78 11.78 0 0 1 30 16.62zm-15.52 2q0 3.81 2.93 3.81 3.11 0 3.38-4.7l.21-3.95a8.77 8.77 0 0 0-2.36-.3 3.73 3.73 0 0 0-3.06 1.35 5.78 5.78 0 0 0-1.1 3.76z"/></symbol><symbol id="socialfacebook" viewBox="0 0 36 36"><path class="cls-1" d="M15.45 31V19.14h-4v-4.62h4v-3.41c0-4 2.3-6.11 5.67-6.11a29.77 29.77 0 0 1 3.4.18v4.14h-2.34c-1.83 0-2.19.91-2.19 2.25v3h4.36l-.78 4.62H20V31z"/></symbol><symbol id="socialinstagram" viewBox="0 0 36 36"><path class="cls-1" d="M30.92 12.64a9.54 9.54 0 0 0-.6-3.16 6.65 6.65 0 0 0-3.8-3.8 9.54 9.54 0 0 0-3.16-.6C22 5 21.53 5 18 5s-4 0-5.36.08a9.54 9.54 0 0 0-3.16.6 6.65 6.65 0 0 0-3.8 3.8 9.54 9.54 0 0 0-.6 3.16C5 14 5 14.47 5 18s0 4 .08 5.36a9.54 9.54 0 0 0 .6 3.16 6.65 6.65 0 0 0 3.8 3.8 9.54 9.54 0 0 0 3.16.6C14 31 14.47 31 18 31s4 0 5.36-.08a9.54 9.54 0 0 0 3.16-.6 6.65 6.65 0 0 0 3.8-3.8 9.54 9.54 0 0 0 .6-3.16C31 22 31 21.53 31 18s0-4-.08-5.36zm-2.34 10.61a7.2 7.2 0 0 1-.45 2.41 4.31 4.31 0 0 1-2.47 2.47 7.19 7.19 0 0 1-2.41.45c-1.37.06-1.78.08-5.25.08s-3.88 0-5.25-.08a7.19 7.19 0 0 1-2.41-.45 4.3 4.3 0 0 1-2.47-2.47 7.2 7.2 0 0 1-.45-2.41c-.06-1.37-.08-1.78-.08-5.25s0-3.88.08-5.25a7.2 7.2 0 0 1 .45-2.41 4.31 4.31 0 0 1 2.47-2.47 7.2 7.2 0 0 1 2.41-.45c1.37-.06 1.78-.08 5.25-.08s3.88 0 5.25.08a7.2 7.2 0 0 1 2.41.45 4.31 4.31 0 0 1 2.47 2.47 7.2 7.2 0 0 1 .45 2.41c.06 1.37.08 1.78.08 5.25s-.02 3.88-.08 5.25zM18 11.32A6.68 6.68 0 1 0 24.68 18 6.68 6.68 0 0 0 18 11.32zm0 11A4.33 4.33 0 1 1 22.33 18 4.33 4.33 0 0 1 18 22.33zM24.94 9.5a1.56 1.56 0 1 0 1.56 1.56 1.56 1.56 0 0 0-1.56-1.56z"/></symbol><symbol id="sociallinkedin" viewBox="0 0 36 36"><title>CPHicons-36x36</title><path class="cls-1" d="M8.46 6.74a2.87 2.87 0 0 0-3 2.8 2.86 2.86 0 0 0 2.89 2.79 3 3 0 0 0 3.09-2.79 3 3 0 0 0-2.98-2.8zM6.11 29.26h4.54V14.54H6.11zm17.62-15.42a5.15 5.15 0 0 0-4.61 2.49v-1.76h-4.88v14.69H19v-8.41a3.33 3.33 0 0 1 .25-1.22A2.93 2.93 0 0 1 22 17.79c2.1 0 2.83 1.38 2.83 3.41v8.06h4.67v-8.44c0-4.63-2.5-6.98-5.77-6.98z"/></symbol><symbol id="socialpinterest" viewBox="0 0 36 36"><path class="cls-1" d="M18.59 5c-6.86 0-10.32 5.09-10.32 9.33 0 2.57.94 4.85 3 5.71a.49.49 0 0 0 .72-.37c.07-.26.22-.92.29-1.2a.74.74 0 0 0-.21-.83 4.4 4.4 0 0 1-1-2.93 7 7 0 0 1 7.11-7.15c3.88 0 6 2.45 6 5.72 0 4.31-1.84 7.94-4.58 7.94a2.29 2.29 0 0 1-2.28-2.88c.43-1.89 1.27-3.93 1.27-5.3s-.63-2.24-1.95-2.24c-1.54 0-2.79 1.65-2.79 3.87a5.89 5.89 0 0 0 .5 2.33l-1.86 8.14a17.29 17.29 0 0 0 0 5.67.19.19 0 0 0 .34.09A16.14 16.14 0 0 0 15.4 26c.18-.66 1-4.1 1-4.1a4.1 4.1 0 0 0 3.53 1.86c4.64 0 7.79-4.38 7.79-10.23A8.76 8.76 0 0 0 18.59 5z"/></symbol><symbol id="socialtwitter" viewBox="0 0 36 36"><path class="cls-1" d="M30.28 8.59a11.21 11.21 0 0 1-3.39 1.2A5.53 5.53 0 0 0 23 8.23a5.14 5.14 0 0 0-5.33 4.93 4.56 4.56 0 0 0 .14 1.12 15.58 15.58 0 0 1-11-5.15 4.65 4.65 0 0 0-.72 2.48 4.84 4.84 0 0 0 2.37 4.1A5.67 5.67 0 0 1 6 15.1v.06A5 5 0 0 0 10.32 20a5.61 5.61 0 0 1-1.41.17 5.72 5.72 0 0 1-1-.09 5.3 5.3 0 0 0 5 3.42 11.27 11.27 0 0 1-6.62 2.11A11.77 11.77 0 0 1 5 25.55a16 16 0 0 0 8.18 2.21c9.81 0 15.18-7.51 15.18-14v-.64A10.38 10.38 0 0 0 31 10.55a11.33 11.33 0 0 1-3.06.78 5 5 0 0 0 2.34-2.74z"/></symbol><symbol id="star" viewBox="0 0 14 13"><path fill="#D8D8D8" d="M7 10.5l-4.114 2.163.785-4.581L.343 4.837l4.6-.669L7 0l2.057 4.168 4.6.669-3.328 3.245.785 4.581z" fill-rule="evenodd"/></symbol><symbol id="storm" viewBox="0 0 26.5 28.57"><title>storm</title><path d="M11 3.81a.5.5 0 0 0 .48.37h.13a.5.5 0 0 0 .35-.61L11.1.37a.5.5 0 0 0-1 .26zM15.38 3.81a.5.5 0 0 0 .48.37h.13a.5.5 0 0 0 .35-.61l-.85-3.2a.5.5 0 0 0-1 .26zM19.77 3.81a.5.5 0 0 0 .48.37h.13a.5.5 0 0 0 .35-.61l-.84-3.2a.5.5 0 0 0-1 .26zM24.65 7.93L8.07 5.57a3.15 3.15 0 0 0-.82.06l-7 4a.49.49 0 0 0-.13.13v.05a.49.49 0 0 0-.06.23v18a.5.5 0 0 0 1 0V10.93l6.19 3.57a.49.49 0 0 0 .25.07h.57l16.58-2.35a2.17 2.17 0 0 0 0-4.29zm-16.9 5.63c-.24-.19-.75-1.37-.75-3.49s.56-3.4.72-3.5c.22.1.78 1.29.78 3.5s-.5 3.3-.75 3.49zM6.32 7.32A11.35 11.35 0 0 0 6 10.07a11.35 11.35 0 0 0 .32 2.75l-4.81-2.75zm18.19 3.91L9 13.43a9.93 9.93 0 0 0 .52-3.36A9.93 9.93 0 0 0 9 6.71l15.54 2.2a1.17 1.17 0 0 1 0 2.31z"/></symbol><symbol id="terror" viewBox="0 0 17 26.3"><title>terror</title><path d="M4.18 4.45a.5.5 0 0 0 .71-.71L2.77 1.62a.5.5 0 0 0-.71.71zM8.5 3.83a.5.5 0 0 0 .5-.5V.5a.5.5 0 0 0-1 0v2.83a.5.5 0 0 0 .5.5zM12.32 4.6a.5.5 0 0 0 .35-.15l2.12-2.12a.5.5 0 0 0-.71-.71L12 3.74a.5.5 0 0 0 .35.85zM15 18.85v-6.3a6.5 6.5 0 0 0-13 0v6.3a2.5 2.5 0 0 0-2 2.45v2.5a2.5 2.5 0 0 0 2.5 2.5h12a2.5 2.5 0 0 0 2.5-2.5v-2.5a2.5 2.5 0 0 0-2-2.45zM8.5 7a5.51 5.51 0 0 1 5.5 5.5v6.3H3v-6.25A5.51 5.51 0 0 1 8.5 7zM16 23.8a1.5 1.5 0 0 1-1.5 1.5h-12A1.5 1.5 0 0 1 1 23.8v-2.5a1.5 1.5 0 0 1 1.5-1.5h12a1.5 1.5 0 0 1 1.5 1.5z"/></symbol><symbol id="travel" viewBox="0 0 36 36"><title>travel</title><path d="M31.168 4c.326 0 .556.061.675.107.144.382.336 1.751-1.08 3.167l-6.582 6.583-.635.635.052.895c.109 1.874.312 5.232.487 8.111.155 2.563.3 4.983.31 5.189.006.141.008.175-.124.334-.295.358-.846.966-1.31 1.47-.72-1.939-2.231-6.034-3.066-8.326l-1.073-2.949-2.22 2.22-4.081 3.925-.568.567-.018.803c-.014.64-.011 1.79-.01 2.804.003.706.005 1.347 0 1.701-.01.016.137.036.123.059-.087-.139-.18-.29-.28-.446-.822-1.313-1.961-3.128-2.31-3.694l-.253-.415-.417-.252a191.674 191.674 0 0 1-4.221-2.634c.035-.022.064.087.088.074h.066c.322 0 .855.007 1.453.016.78.01 1.668.023 2.347.023.26 0 .49-.002.677-.006l.802-.018.568-.568 3.929-4.053 2.212-2.211-2.935-1.08c-2.206-.812-6.432-2.39-8.408-3.132a45.655 45.655 0 0 1 1.474-1.317c.1-.082.177-.124.23-.124l.07.002c.222.011 2.96.19 5.607.363 2.81.183 5.983.39 7.787.504l.9.057.64-.639 6.58-6.581C29.669 4.152 30.665 4 31.169 4zm0-2c-1.181 0-2.632.454-3.927 1.75l-6.582 6.581c-3.707-.234-13.201-.862-13.436-.869a3.165 3.165 0 0 0-.152-.004c-.321 0-.874.062-1.504.582-.74.612-2.282 2.062-2.282 2.062-.372.373-.56.835-.515 1.269.027.263.17.742.814.994.392.153 6.622 2.484 9.499 3.543l-3.93 4.053c-.173.004-.39.006-.632.006-1.198 0-3.056-.039-3.8-.039-.1 0-.178 0-.233.002-.227.007-.696-.104-1.933.93l-.088.082c-.371.371-.458.741-.466.985-.008.252.06.615.424.907.219.177 3.026 1.975 5.329 3.366.552.9 3.092 4.937 3.225 5.156.193.327.51.513.889.525h.03c.369 0 .747-.182 1.117-.542 1.047-1.224.902-1.731.907-1.944.017-.668-.011-3.498.013-4.62l4.08-3.925a1582.06 1582.06 0 0 0 3.477 9.424c.253.644.732.786.995.812.043.005.087.007.13.007.394 0 .803-.185 1.138-.52 0 0 1.446-1.535 2.06-2.281.615-.746.59-1.382.579-1.683-.005-.208-.584-9.651-.8-13.338l6.584-6.583c2.333-2.334 1.962-5.147 1.096-6.012-.385-.385-1.16-.676-2.106-.676z" fill="#1B1B1B" fill-rule="evenodd"/></symbol><symbol id="trygfonden-black" viewBox="0 0 26 23.22"><title>trygfonden</title><path d="M24 2.06a6.51 6.51 0 0 0-9.48 0L13 3.69 11.44 2A6.51 6.51 0 0 0 2 2a7.17 7.17 0 0 0 0 9.84L12.59 23a.55.55 0 0 0 .78 0L24 11.9a7.17 7.17 0 0 0 0-9.84zm-.8 9.08l-1 1-1.91-1.91a.5.5 0 0 0-.71.71l1.92 1.92-2.24 2.35-2-2a.5.5 0 0 0-.71.71l2 2-2.25 2.36v-.06l-2-2a.5.5 0 0 0-.71.71l2 2h.07L13 21.86 2.76 11.13a6.08 6.08 0 0 1 0-8.32 5.36 5.36 0 0 1 7.87 0l2 2.07a.55.55 0 0 0 .78 0l2-2a5.35 5.35 0 0 1 7.87 0 6.06 6.06 0 0 1-.04 8.26z" fill="#262626"/></symbol><symbol id="trygfonden-nofill" viewBox="0 0 26 23.22"><title>trygfonden</title><path d="M24 2.06a6.51 6.51 0 0 0-9.48 0L13 3.69 11.44 2A6.51 6.51 0 0 0 2 2a7.17 7.17 0 0 0 0 9.84L12.59 23a.55.55 0 0 0 .78 0L24 11.9a7.17 7.17 0 0 0 0-9.84zm-.8 9.08l-1 1-1.91-1.91a.5.5 0 0 0-.71.71l1.92 1.92-2.24 2.35-2-2a.5.5 0 0 0-.71.71l2 2-2.25 2.36v-.06l-2-2a.5.5 0 0 0-.71.71l2 2h.07L13 21.86 2.76 11.13a6.08 6.08 0 0 1 0-8.32 5.36 5.36 0 0 1 7.87 0l2 2.07a.55.55 0 0 0 .78 0l2-2a5.35 5.35 0 0 1 7.87 0 6.06 6.06 0 0 1-.04 8.26z" fill="transparent"/></symbol><symbol id="trygfonden-red" viewBox="0 0 26 23.22"><title>trygfonden</title><path d="M24 2.06a6.51 6.51 0 0 0-9.48 0L13 3.69 11.44 2A6.51 6.51 0 0 0 2 2a7.17 7.17 0 0 0 0 9.84L12.59 23a.55.55 0 0 0 .78 0L24 11.9a7.17 7.17 0 0 0 0-9.84zm-.8 9.08l-1 1-1.91-1.91a.5.5 0 0 0-.71.71l1.92 1.92-2.24 2.35-2-2a.5.5 0 0 0-.71.71l2 2-2.25 2.36v-.06l-2-2a.5.5 0 0 0-.71.71l2 2h.07L13 21.86 2.76 11.13a6.08 6.08 0 0 1 0-8.32 5.36 5.36 0 0 1 7.87 0l2 2.07a.55.55 0 0 0 .78 0l2-2a5.35 5.35 0 0 1 7.87 0 6.06 6.06 0 0 1-.04 8.26z" fill="#dc0000"/></symbol><symbol id="trygfonden-white" viewBox="0 0 26 23.22"><title>trygfonden</title><path d="M24 2.06a6.51 6.51 0 0 0-9.48 0L13 3.69 11.44 2A6.51 6.51 0 0 0 2 2a7.17 7.17 0 0 0 0 9.84L12.59 23a.55.55 0 0 0 .78 0L24 11.9a7.17 7.17 0 0 0 0-9.84zm-.8 9.08l-1 1-1.91-1.91a.5.5 0 0 0-.71.71l1.92 1.92-2.24 2.35-2-2a.5.5 0 0 0-.71.71l2 2-2.25 2.36v-.06l-2-2a.5.5 0 0 0-.71.71l2 2h.07L13 21.86 2.76 11.13a6.08 6.08 0 0 1 0-8.32 5.36 5.36 0 0 1 7.87 0l2 2.07a.55.55 0 0 0 .78 0l2-2a5.35 5.35 0 0 1 7.87 0 6.06 6.06 0 0 1-.04 8.26z" fill="#fff"/></symbol><symbol id="trygfonden" viewBox="0 0 26 23.22"><title>trygfonden</title><path d="M24 2.06a6.51 6.51 0 0 0-9.48 0L13 3.69 11.44 2A6.51 6.51 0 0 0 2 2a7.17 7.17 0 0 0 0 9.84L12.59 23a.55.55 0 0 0 .78 0L24 11.9a7.17 7.17 0 0 0 0-9.84zm-.8 9.08l-1 1-1.91-1.91a.5.5 0 0 0-.71.71l1.92 1.92-2.24 2.35-2-2a.5.5 0 0 0-.71.71l2 2-2.25 2.36v-.06l-2-2a.5.5 0 0 0-.71.71l2 2h.07L13 21.86 2.76 11.13a6.08 6.08 0 0 1 0-8.32 5.36 5.36 0 0 1 7.87 0l2 2.07a.55.55 0 0 0 .78 0l2-2a5.35 5.35 0 0 1 7.87 0 6.06 6.06 0 0 1-.04 8.26z"/></symbol><symbol id="user" viewBox="0 0 36 36"><title>user</title><path d="M17.991 4c3.396 0 6.998 2.861 6.998 4.996v4.997c0 1.924-.8 5.604-2.945 7.293a2.002 2.002 0 0 0 .402 3.389l8.703 4.127c.068.031.834.16.834 1.23l.001 1.952L4 31.985v-2.03c0-.794.597-1.044.835-1.154l8.782-4.144a2 2 0 0 0 .416-3.376c-2.078-1.668-3.045-5.335-3.045-7.288V8.996c0-2.09 3.637-4.996 7.003-4.996zm0-2c-4.416 0-9.003 3.686-9.003 6.996v4.997c0 2.184.996 6.602 3.793 8.847l-8.783 4.145S2 27.875 2 28.984v3.001c0 1.104.895 1.999 1.998 1.999h27.986a1.998 1.998 0 0 0 1.999-1.999v-3.001c0-1.175-1.999-1.999-1.999-1.999l-8.703-4.127c2.77-2.181 3.708-6.464 3.708-8.865V8.996c0-3.31-4.582-6.996-8.998-6.996z" fill="#1B1B1B" fill-rule="evenodd"/></symbol><symbol id="video-play-mod-backup" viewBox="0 0 20.26 24.53"><g data-name="Layer 2" fill="none"><path d="M1 23.53V1l18.26 11.26L1 23.53z"/><path d="M1 1l18.26 11.26L1 23.53V1m0-1a1 1 0 0 0-1 1v22.53a1 1 0 0 0 1.52.85l18.27-11.27a1 1 0 0 0 0-1.7L1.52.15A1 1 0 0 0 1 0z"/><path d="M8.46 11.76H5.63a.5.5 0 0 0 0 1h2.83a.5.5 0 0 0 0-1zM5.63 9.36h2.83a.5.5 0 0 0 0-1H5.63a.5.5 0 0 0 0 1zM8.46 15.36H5.63a.5.5 0 0 0 0 1h2.83a.5.5 0 0 0 0-1z"/></g></symbol><symbol id="video-play-old" viewBox="0 0 20.26 24.53"><title>Asset 39</title><g id="Layer_2" data-name="Layer 2"><g id="Icons"><path class="cls-1" d="M1 23.53V1l18.26 11.26L1 23.53z"/><path d="M1 1l18.26 11.26L1 23.53V1m0-1a1 1 0 0 0-1 1v22.53a1 1 0 0 0 1.52.85l18.27-11.27a1 1 0 0 0 0-1.7L1.52.15A1 1 0 0 0 1 0z"/><path d="M8.46 11.76H5.63a.5.5 0 0 0 0 1h2.83a.5.5 0 0 0 0-1zM5.63 9.36h2.83a.5.5 0 0 0 0-1H5.63a.5.5 0 0 0 0 1zM8.46 15.36H5.63a.5.5 0 0 0 0 1h2.83a.5.5 0 0 0 0-1z"/></g></g></symbol><symbol id="video-play-very-old" viewBox="0 0 60 60"><title>play</title><g fill="none" fill-rule="evenodd"><circle fill="#262626" cx="30" cy="30" r="30"/><g transform="translate(18 18)"><mask id="b" fill="#fff"><use xlink:href="#a"/></mask><use fill="#1B1B1B" xlink:href="#a"/><g mask="url(#b)" fill="#FFF"><path d="M0 0h24v24H0z"/></g></g></g></symbol><symbol id="video-play" viewBox="0 0 20.26 24.53"><path fill="transparent" d="M1 23.53V1l18.26 11.26L1 23.53z"/><path d="M1 1l18.26 11.26L1 23.53V1m0-1a1 1 0 0 0-1 1v22.53a1 1 0 0 0 1.52.85l18.27-11.27a1 1 0 0 0 0-1.7L1.52.15A1 1 0 0 0 1 0z"/><path d="M8.46 11.76H5.63a.5.5 0 0 0 0 1h2.83a.5.5 0 0 0 0-1zM5.63 9.36h2.83a.5.5 0 0 0 0-1H5.63a.5.5 0 0 0 0 1zM8.46 15.36H5.63a.5.5 0 0 0 0 1h2.83a.5.5 0 0 0 0-1z"/></symbol><symbol id="video-play__BACKUP" viewBox="0 0 20.26 24.53"><g id="Layer_2" data-name="Layer 2"><g id="Icons"><path fill="transparent" d="M1 23.53V1l18.26 11.26L1 23.53z"/><path d="M1 1l18.26 11.26L1 23.53V1m0-1a1 1 0 0 0-1 1v22.53a1 1 0 0 0 1.52.85l18.27-11.27a1 1 0 0 0 0-1.7L1.52.15A1 1 0 0 0 1 0z"/><path d="M8.46 11.76H5.63a.5.5 0 0 0 0 1h2.83a.5.5 0 0 0 0-1zM5.63 9.36h2.83a.5.5 0 0 0 0-1H5.63a.5.5 0 0 0 0 1zM8.46 15.36H5.63a.5.5 0 0 0 0 1h2.83a.5.5 0 0 0 0-1z"/></g></g></symbol><symbol id="wrench" viewBox="0 0 36 36"><title>wrench</title><path d="M33.452 8.763a.944.944 0 0 0-1.018.151l-5.041 4.528-4.55-4.669 4.506-5.204a.95.95 0 0 0 .151-1.016.933.933 0 0 0-.86-.553h-.271c-2.785 0-7.593.239-9.739 2.417l-.433.43c-2.29 2.337-2.697 6.168-1.491 9.081L3.167 25.706a4.08 4.08 0 0 0 0 5.713l1.408 1.428a3.944 3.944 0 0 0 5.635 0l11.71-11.804c1.107.598 2.625.989 3.899.989 2.043 0 3.98-.824 5.455-2.32l.426-.433c2.332-2.364 2.296-7.415 2.306-9.638a.964.964 0 0 0-.554-.878zm-3.147 9.158l-.372.434c-1.116 1.133-2.578 1.676-4.114 1.676-.759 0-1.784-.143-2.476-.431a5.952 5.952 0 0 1-1.724-1.107L8.801 31.419a1.968 1.968 0 0 1-2.817 0l-1.408-1.428a2.043 2.043 0 0 1-.001-2.857L17.1 14.357a6.009 6.009 0 0 1-.877-1.968c-.482-1.95-.201-4.644 1.313-6.189l.431-.435c1.299-1.318 4.671-1.707 6.537-1.822l-3.667 4.236a.97.97 0 0 0 .038 1.308l5.798 5.948a.936.936 0 0 0 1.298.047l4.082-3.676c-.122 1.981-.506 4.856-1.748 6.115z" fill="#1B1B1B" fill-rule="evenodd"/></symbol><symbol id="youngliving" viewBox="0 0 36 36"><title>youngliving</title><path d="M32.723 13.983c-.706 1.901-1.425 3.187-3.398 4.941-1.402 1.246-4.78 2.822-7.046 4.087-.83.465-1.714.942-2.212 1.251v5.16c0 .292-.128.57-.35.76l-3.705 3.685a.997.997 0 0 1-.96.192 1 1 0 0 1-.664-.72l-1.217-5.148-2.26-2.506c-1.084-1.203-1.76-1.954-2.168-2.456l-5.967-1.364a.998.998 0 0 1-.524-1.639l3.665-3.973a1 1 0 0 1 .748-.337h5.563a63.92 63.92 0 0 0 1.181-2.288c1.105-2.205 2.358-4.86 3.617-6.33 1.512-1.764 3.131-2.927 5.098-3.662 5.383-2.01 10.98-1.602 10.98-1.602a1 1 0 0 1 .925.936c.017.263.374 6.492-1.306 11.013zm-.66-9.985c-1.74-.012-5.55.133-9.24 1.512-1.658.62-2.979 1.572-4.278 3.09-1.1 1.282-2.346 3.926-3.348 5.924-.59 1.181-1.102 2.2-1.542 2.916a.998.998 0 0 1-.852.476H7.115l-2.247 2.375L9.45 21.34c.217.05.41.17.55.34.212.243 2.99 3.324 4.83 5.362.112.126.191.277.23.44l.898 3.8 2.11-2.319v-5.226c0-.3.135-.585.368-.775.404-.33 1.327-.834 2.868-1.695 2.065-1.154 5.454-2.735 6.694-3.836 1.677-1.492 2.235-2.484 2.851-4.143 1.178-3.169 1.247-7.445 1.215-9.289zm-7.998 11.973a4.015 4.015 0 0 1-4.01-4.01 4.015 4.015 0 0 1 4.01-4.012 4.015 4.015 0 0 1 4.011 4.011 4.015 4.015 0 0 1-4.01 4.011zm0-6.013a2.005 2.005 0 0 0-2.002 2.002c0 1.104.9 2.003 2.002 2.003a2.006 2.006 0 0 0 2.003-2.003 2.005 2.005 0 0 0-2.003-2.002zM5.205 25.792c.512-.254 1.041-.487 1.616-.928l1.218 1.554c-.728.56-1.4.895-1.94 1.165-1.289.641-1.93 1.003-2.032 4.377 3.497-.127 3.893-.998 4.522-2.304.245-.508.523-1.085.968-1.692l1.483 1.347c-.367.61-.488.915-.706 1.367-.993 2.063-1.984 3.26-7.284 3.26l-.983.022-.017-1.022c0-5.022 1.01-6.076 3.155-7.146z" fill="#1B1B1B" fill-rule="evenodd"/></symbol></svg>